{
	"asset":{
		"generator":"Khronos glTF Blender I/O v4.4.55",
		"version":"2.0"
	},
	"scene":0,
	"scenes":[
		{
			"name":"Scene",
			"nodes":[
				0
			]
		}
	],
	"nodes":[
		{
			"mesh":0,
			"name":"Figure",
			"rotation":[
				0.7071068286895752,
				0,
				0,
				0.7071068286895752
			],
			"scale":[
				0.009999999776482582,
				0.009999999776482582,
				0.009999999776482582
			]
		}
	],
	"materials":[
		{
			"doubleSided":true,
			"name":"standardSurface1",
			"pbrMetallicRoughness":{
				"metallicFactor":0,
				"roughnessFactor":0.5527864098548889
			}
		}
	],
	"meshes":[
		{
			"name":"Mesh",
			"primitives":[
				{
					"attributes":{
						"POSITION":0,
						"NORMAL":1,
						"TEXCOORD_0":2
					},
					"indices":3,
					"material":0
				}
			]
		}
	],
	"accessors":[
		{
			"bufferView":0,
			"componentType":5126,
			"count":6911,
			"max":[
				269.2277526855469,
				-109.8415298461914,
				-5.113433837890625
			],
			"min":[
				-242,
				-387.0310974121094,
				-1487.962646484375
			],
			"type":"VEC3"
		},
		{
			"bufferView":1,
			"componentType":5126,
			"count":6911,
			"type":"VEC3"
		},
		{
			"bufferView":2,
			"componentType":5126,
			"count":6911,
			"type":"VEC2"
		},
		{
			"bufferView":3,
			"componentType":5123,
			"count":35796,
			"type":"SCALAR"
		}
	],
	"bufferViews":[
		{
			"buffer":0,
			"byteLength":82932,
			"byteOffset":0,
			"target":34962
		},
		{
			"buffer":0,
			"byteLength":82932,
			"byteOffset":82932,
			"target":34962
		},
		{
			"buffer":0,
			"byteLength":55288,
			"byteOffset":165864,
			"target":34962
		},
		{
			"buffer":0,
			"byteLength":71592,
			"byteOffset":221152,
			"target":34963
		}
	],
	"buffers":[
		{
			"byteLength":292744,
			"uri":"Figure.bin"
		}
	]
}
