{
	"asset":{
		"generator":"Khronos glTF Blender I/O v4.4.55",
		"version":"2.0"
	},
	"extensionsUsed":[
		"KHR_materials_specular"
	],
	"scene":0,
	"scenes":[
		{
			"name":"Scene",
			"nodes":[
				0,
				14
			]
		}
	],
	"nodes":[
		{
			"name":"Arm_Muscle",
			"rotation":[
				0.7071068286895752,
				0,
				0,
				0.7071068286895752
			],
			"scale":[
				0.009999999776482582,
				0.009999999776482582,
				0.009999999776482582
			]
		},
		{
			"name":"Wrist",
			"rotation":[
				0,
				1.4901161193847656e-08,
				-2.117582368135751e-22,
				1
			],
			"scale":[
				1,
				0.9999999403953552,
				1
			],
			"translation":[
				2.5326359272003174,
				-0.816939651966095,
				-3.644677804004459e-07
			]
		},
		{
			"children":[
				1
			],
			"name":"Elbow",
			"rotation":[
				-0.9995422959327698,
				-3.5543408290921764e-15,
				0.030253395438194275,
				4.442926036365221e-16
			],
			"scale":[
				0.9999999403953552,
				0.9999999403953552,
				0.9999999403953552
			],
			"translation":[
				3.06713604927063,
				-0.16956810653209686,
				0.010667584836483002
			]
		},
		{
			"children":[
				2
			],
			"name":"Arm",
			"rotation":[
				5.064385427677991e-15,
				0.6141387224197388,
				2.3211764778872154e-15,
				0.789198100566864
			],
			"scale":[
				1,
				0.9999998807907104,
				1
			],
			"translation":[
				1.1708265542984009,
				-1.774424163158983e-07,
				1.446494707124657e-06
			]
		},
		{
			"children":[
				3
			],
			"name":"Shoulder1",
			"rotation":[
				0,
				-0.9997101426124573,
				0,
				0.024075401946902275
			],
			"translation":[
				-0.9117016792297363,
				-1.2987542152404785,
				-15.074788093566895
			]
		},
		{
			"name":"Wrist.001",
			"rotation":[
				0,
				1.4901161193847656e-08,
				-2.117582368135751e-22,
				1
			],
			"scale":[
				1,
				0.9999999403953552,
				1
			],
			"translation":[
				2.5326359272003174,
				-0.816939651966095,
				-3.644677804004459e-07
			]
		},
		{
			"children":[
				5
			],
			"name":"Elbow.001",
			"rotation":[
				-0.9995422959327698,
				-3.5543408290921764e-15,
				0.030253395438194275,
				4.442926036365221e-16
			],
			"scale":[
				0.9999999403953552,
				0.9999999403953552,
				0.9999999403953552
			],
			"translation":[
				3.06713604927063,
				-0.16956810653209686,
				0.010667584836483002
			]
		},
		{
			"children":[
				6
			],
			"name":"Arm.001",
			"rotation":[
				5.064385427677991e-15,
				0.6141387224197388,
				2.3211764778872154e-15,
				0.789198100566864
			],
			"scale":[
				1,
				0.9999998807907104,
				1
			],
			"translation":[
				1.1708265542984009,
				-1.774424163158983e-07,
				1.446494707124657e-06
			]
		},
		{
			"children":[
				7
			],
			"name":"Shoulder2",
			"rotation":[
				0,
				-0.9997101426124573,
				0,
				0.024075401946902275
			],
			"translation":[
				-0.9117016792297363,
				-1.2987542152404785,
				-15.074788093566895
			]
		},
		{
			"mesh":0,
			"name":"Arm_Skeleton",
			"skin":0
		},
		{
			"mesh":1,
			"name":"polySurface11",
			"skin":0
		},
		{
			"mesh":2,
			"name":"polySurface5",
			"skin":0
		},
		{
			"mesh":3,
			"name":"polySurface6",
			"skin":0
		},
		{
			"mesh":4,
			"name":"polySurface8",
			"skin":0
		},
		{
			"children":[
				9,
				10,
				11,
				12,
				13,
				4,
				8
			],
			"name":"Armature",
			"rotation":[
				0.7071068286895752,
				0,
				0,
				0.7071068286895752
			],
			"scale":[
				0.009999999776482582,
				0.009999999776482582,
				0.009999999776482582
			]
		}
	],
	"animations":[
		{
			"channels":[
				{
					"sampler":0,
					"target":{
						"node":4,
						"path":"translation"
					}
				},
				{
					"sampler":1,
					"target":{
						"node":4,
						"path":"rotation"
					}
				},
				{
					"sampler":2,
					"target":{
						"node":4,
						"path":"scale"
					}
				},
				{
					"sampler":3,
					"target":{
						"node":3,
						"path":"translation"
					}
				},
				{
					"sampler":4,
					"target":{
						"node":3,
						"path":"rotation"
					}
				},
				{
					"sampler":5,
					"target":{
						"node":3,
						"path":"scale"
					}
				},
				{
					"sampler":6,
					"target":{
						"node":2,
						"path":"translation"
					}
				},
				{
					"sampler":7,
					"target":{
						"node":2,
						"path":"rotation"
					}
				},
				{
					"sampler":8,
					"target":{
						"node":2,
						"path":"scale"
					}
				},
				{
					"sampler":9,
					"target":{
						"node":1,
						"path":"translation"
					}
				},
				{
					"sampler":10,
					"target":{
						"node":1,
						"path":"rotation"
					}
				},
				{
					"sampler":11,
					"target":{
						"node":1,
						"path":"scale"
					}
				},
				{
					"sampler":12,
					"target":{
						"node":8,
						"path":"translation"
					}
				},
				{
					"sampler":13,
					"target":{
						"node":8,
						"path":"rotation"
					}
				},
				{
					"sampler":14,
					"target":{
						"node":8,
						"path":"scale"
					}
				},
				{
					"sampler":15,
					"target":{
						"node":7,
						"path":"translation"
					}
				},
				{
					"sampler":16,
					"target":{
						"node":7,
						"path":"rotation"
					}
				},
				{
					"sampler":17,
					"target":{
						"node":7,
						"path":"scale"
					}
				},
				{
					"sampler":18,
					"target":{
						"node":6,
						"path":"translation"
					}
				},
				{
					"sampler":19,
					"target":{
						"node":6,
						"path":"rotation"
					}
				},
				{
					"sampler":20,
					"target":{
						"node":6,
						"path":"scale"
					}
				},
				{
					"sampler":21,
					"target":{
						"node":5,
						"path":"translation"
					}
				},
				{
					"sampler":22,
					"target":{
						"node":5,
						"path":"rotation"
					}
				},
				{
					"sampler":23,
					"target":{
						"node":5,
						"path":"scale"
					}
				}
			],
			"name":"Armature|Take 001|BaseLayer",
			"samplers":[
				{
					"input":31,
					"interpolation":"STEP",
					"output":32
				},
				{
					"input":31,
					"interpolation":"STEP",
					"output":33
				},
				{
					"input":31,
					"interpolation":"STEP",
					"output":34
				},
				{
					"input":31,
					"interpolation":"STEP",
					"output":35
				},
				{
					"input":36,
					"interpolation":"LINEAR",
					"output":37
				},
				{
					"input":31,
					"interpolation":"STEP",
					"output":38
				},
				{
					"input":31,
					"interpolation":"STEP",
					"output":39
				},
				{
					"input":36,
					"interpolation":"LINEAR",
					"output":40
				},
				{
					"input":31,
					"interpolation":"STEP",
					"output":41
				},
				{
					"input":31,
					"interpolation":"STEP",
					"output":42
				},
				{
					"input":31,
					"interpolation":"STEP",
					"output":43
				},
				{
					"input":31,
					"interpolation":"STEP",
					"output":44
				},
				{
					"input":31,
					"interpolation":"STEP",
					"output":45
				},
				{
					"input":31,
					"interpolation":"STEP",
					"output":46
				},
				{
					"input":31,
					"interpolation":"STEP",
					"output":47
				},
				{
					"input":31,
					"interpolation":"STEP",
					"output":48
				},
				{
					"input":36,
					"interpolation":"LINEAR",
					"output":49
				},
				{
					"input":31,
					"interpolation":"STEP",
					"output":50
				},
				{
					"input":31,
					"interpolation":"STEP",
					"output":51
				},
				{
					"input":36,
					"interpolation":"LINEAR",
					"output":52
				},
				{
					"input":31,
					"interpolation":"STEP",
					"output":53
				},
				{
					"input":31,
					"interpolation":"STEP",
					"output":54
				},
				{
					"input":31,
					"interpolation":"STEP",
					"output":55
				},
				{
					"input":31,
					"interpolation":"STEP",
					"output":56
				}
			]
		}
	],
	"materials":[
		{
			"doubleSided":true,
			"extensions":{
				"KHR_materials_specular":{
					"specularTexture":{
						"index":0
					}
				}
			},
			"name":"blinn2",
			"normalTexture":{
				"index":1
			},
			"pbrMetallicRoughness":{
				"baseColorTexture":{
					"index":2
				},
				"metallicFactor":0.5,
				"roughnessFactor":0.7487671971321106
			}
		},
		{
			"doubleSided":true,
			"extensions":{
				"KHR_materials_specular":{
					"specularTexture":{
						"index":3
					}
				}
			},
			"name":"blinn1",
			"normalTexture":{
				"index":4
			},
			"pbrMetallicRoughness":{
				"baseColorTexture":{
					"index":5
				},
				"metallicFactor":0.5,
				"roughnessFactor":0.7487671971321106
			}
		}
	],
	"meshes":[
		{
			"name":"Mesh.004",
			"primitives":[
				{
					"attributes":{
						"POSITION":0,
						"NORMAL":1,
						"TEXCOORD_0":2,
						"JOINTS_0":3,
						"WEIGHTS_0":4
					},
					"indices":5,
					"material":0
				}
			]
		},
		{
			"name":"Mesh.001",
			"primitives":[
				{
					"attributes":{
						"POSITION":7,
						"NORMAL":8,
						"TEXCOORD_0":9,
						"JOINTS_0":10,
						"WEIGHTS_0":11
					},
					"indices":12,
					"material":1
				}
			]
		},
		{
			"name":"Mesh.002",
			"primitives":[
				{
					"attributes":{
						"POSITION":13,
						"NORMAL":14,
						"TEXCOORD_0":15,
						"JOINTS_0":16,
						"WEIGHTS_0":17
					},
					"indices":18,
					"material":1
				}
			]
		},
		{
			"name":"Mesh",
			"primitives":[
				{
					"attributes":{
						"POSITION":19,
						"NORMAL":20,
						"TEXCOORD_0":21,
						"JOINTS_0":22,
						"WEIGHTS_0":23
					},
					"indices":24,
					"material":1
				}
			]
		},
		{
			"name":"Mesh.003",
			"primitives":[
				{
					"attributes":{
						"POSITION":25,
						"NORMAL":26,
						"TEXCOORD_0":27,
						"JOINTS_0":28,
						"WEIGHTS_0":29
					},
					"indices":30,
					"material":1
				}
			]
		}
	],
	"textures":[
		{
			"sampler":0,
			"source":0
		},
		{
			"sampler":0,
			"source":1
		},
		{
			"sampler":0,
			"source":2
		},
		{
			"sampler":0,
			"source":3
		},
		{
			"sampler":0,
			"source":4
		},
		{
			"sampler":0,
			"source":5
		}
	],
	"images":[
		{
			"mimeType":"image/jpeg",
			"name":"Anatomy_Skeleton_Specular",
			"uri":"Anatomy_Skeleton_Specular.jpg"
		},
		{
			"mimeType":"image/jpeg",
			"name":"Anatomy_Skeleton_Normal",
			"uri":"Anatomy_Skeleton_Normal.jpg"
		},
		{
			"mimeType":"image/jpeg",
			"name":"Anatomy_Skeleton_AlbedoTransparency",
			"uri":"Anatomy_Skeleton_AlbedoTransparency.jpg"
		},
		{
			"mimeType":"image/jpeg",
			"name":"Anatomy_Muscle_Specular",
			"uri":"Anatomy_Muscle_Specular.jpg"
		},
		{
			"mimeType":"image/jpeg",
			"name":"Anatomy_Muscle_Normal",
			"uri":"Anatomy_Muscle_Normal.jpg"
		},
		{
			"mimeType":"image/jpeg",
			"name":"Anatomy_Muscle_AlbedoTransparency",
			"uri":"Anatomy_Muscle_AlbedoTransparency.jpg"
		}
	],
	"skins":[
		{
			"inverseBindMatrices":6,
			"joints":[
				4,
				3,
				2,
				1,
				8,
				7,
				6,
				5
			],
			"name":"Armature"
		}
	],
	"accessors":[
		{
			"bufferView":0,
			"componentType":5126,
			"count":4316,
			"max":[
				-0.002347399713471532,
				0.15567848086357117,
				-0.002605581656098366
			],
			"min":[
				-0.03187509626150131,
				0.09448719024658203,
				-0.021675990894436836
			],
			"type":"VEC3"
		},
		{
			"bufferView":1,
			"componentType":5126,
			"count":4316,
			"type":"VEC3"
		},
		{
			"bufferView":2,
			"componentType":5126,
			"count":4316,
			"type":"VEC2"
		},
		{
			"bufferView":3,
			"componentType":5121,
			"count":4316,
			"type":"VEC4"
		},
		{
			"bufferView":4,
			"componentType":5126,
			"count":4316,
			"type":"VEC4"
		},
		{
			"bufferView":5,
			"componentType":5123,
			"count":24114,
			"type":"SCALAR"
		},
		{
			"bufferView":6,
			"componentType":5126,
			"count":8,
			"type":"MAT4"
		},
		{
			"bufferView":7,
			"componentType":5126,
			"count":7508,
			"max":[
				-0.022468356415629387,
				0.1289944052696228,
				-0.003470997093245387
			],
			"min":[
				-0.03219260647892952,
				0.09128411114215851,
				-0.016223197802901268
			],
			"type":"VEC3"
		},
		{
			"bufferView":8,
			"componentType":5126,
			"count":7508,
			"type":"VEC3"
		},
		{
			"bufferView":9,
			"componentType":5126,
			"count":7508,
			"type":"VEC2"
		},
		{
			"bufferView":10,
			"componentType":5121,
			"count":7508,
			"type":"VEC4"
		},
		{
			"bufferView":11,
			"componentType":5126,
			"count":7508,
			"type":"VEC4"
		},
		{
			"bufferView":12,
			"componentType":5123,
			"count":41874,
			"type":"SCALAR"
		},
		{
			"bufferView":13,
			"componentType":5126,
			"count":1332,
			"max":[
				-0.015498998574912548,
				0.15188641846179962,
				-0.008481191471219063
			],
			"min":[
				-0.028256064280867577,
				0.11491572111845016,
				-0.015388189814984798
			],
			"type":"VEC3"
		},
		{
			"bufferView":14,
			"componentType":5126,
			"count":1332,
			"type":"VEC3"
		},
		{
			"bufferView":15,
			"componentType":5126,
			"count":1332,
			"type":"VEC2"
		},
		{
			"bufferView":16,
			"componentType":5121,
			"count":1332,
			"type":"VEC4"
		},
		{
			"bufferView":17,
			"componentType":5126,
			"count":1332,
			"type":"VEC4"
		},
		{
			"bufferView":18,
			"componentType":5123,
			"count":7410,
			"type":"SCALAR"
		},
		{
			"bufferView":19,
			"componentType":5126,
			"count":559,
			"max":[
				-0.02075054682791233,
				0.14632262289524078,
				-0.011325091123580933
			],
			"min":[
				-0.027222324162721634,
				0.12244051694869995,
				-0.015147190541028976
			],
			"type":"VEC3"
		},
		{
			"bufferView":20,
			"componentType":5126,
			"count":559,
			"type":"VEC3"
		},
		{
			"bufferView":21,
			"componentType":5126,
			"count":559,
			"type":"VEC2"
		},
		{
			"bufferView":22,
			"componentType":5121,
			"count":559,
			"type":"VEC4"
		},
		{
			"bufferView":23,
			"componentType":5126,
			"count":559,
			"type":"VEC4"
		},
		{
			"bufferView":24,
			"componentType":5123,
			"count":3096,
			"type":"SCALAR"
		},
		{
			"bufferView":25,
			"componentType":5126,
			"count":3489,
			"max":[
				-0.007513699121773243,
				0.15591399371623993,
				-0.00645433459430933
			],
			"min":[
				-0.028044957667589188,
				0.11924591660499573,
				-0.022256890311837196
			],
			"type":"VEC3"
		},
		{
			"bufferView":26,
			"componentType":5126,
			"count":3489,
			"type":"VEC3"
		},
		{
			"bufferView":27,
			"componentType":5126,
			"count":3489,
			"type":"VEC2"
		},
		{
			"bufferView":28,
			"componentType":5121,
			"count":3489,
			"type":"VEC4"
		},
		{
			"bufferView":29,
			"componentType":5126,
			"count":3489,
			"type":"VEC4"
		},
		{
			"bufferView":30,
			"componentType":5123,
			"count":19698,
			"type":"SCALAR"
		},
		{
			"bufferView":31,
			"componentType":5126,
			"count":2,
			"max":[
				1.0916666666666666
			],
			"min":[
				0.008333333333333333
			],
			"type":"SCALAR"
		},
		{
			"bufferView":32,
			"componentType":5126,
			"count":2,
			"type":"VEC3"
		},
		{
			"bufferView":33,
			"componentType":5126,
			"count":2,
			"type":"VEC4"
		},
		{
			"bufferView":34,
			"componentType":5126,
			"count":2,
			"type":"VEC3"
		},
		{
			"bufferView":35,
			"componentType":5126,
			"count":2,
			"type":"VEC3"
		},
		{
			"bufferView":36,
			"componentType":5126,
			"count":131,
			"max":[
				1.0916666666666666
			],
			"min":[
				0.008333333333333333
			],
			"type":"SCALAR"
		},
		{
			"bufferView":37,
			"componentType":5126,
			"count":131,
			"type":"VEC4"
		},
		{
			"bufferView":38,
			"componentType":5126,
			"count":2,
			"type":"VEC3"
		},
		{
			"bufferView":39,
			"componentType":5126,
			"count":2,
			"type":"VEC3"
		},
		{
			"bufferView":40,
			"componentType":5126,
			"count":131,
			"type":"VEC4"
		},
		{
			"bufferView":41,
			"componentType":5126,
			"count":2,
			"type":"VEC3"
		},
		{
			"bufferView":42,
			"componentType":5126,
			"count":2,
			"type":"VEC3"
		},
		{
			"bufferView":43,
			"componentType":5126,
			"count":2,
			"type":"VEC4"
		},
		{
			"bufferView":44,
			"componentType":5126,
			"count":2,
			"type":"VEC3"
		},
		{
			"bufferView":45,
			"componentType":5126,
			"count":2,
			"type":"VEC3"
		},
		{
			"bufferView":46,
			"componentType":5126,
			"count":2,
			"type":"VEC4"
		},
		{
			"bufferView":47,
			"componentType":5126,
			"count":2,
			"type":"VEC3"
		},
		{
			"bufferView":48,
			"componentType":5126,
			"count":2,
			"type":"VEC3"
		},
		{
			"bufferView":49,
			"componentType":5126,
			"count":131,
			"type":"VEC4"
		},
		{
			"bufferView":50,
			"componentType":5126,
			"count":2,
			"type":"VEC3"
		},
		{
			"bufferView":51,
			"componentType":5126,
			"count":2,
			"type":"VEC3"
		},
		{
			"bufferView":52,
			"componentType":5126,
			"count":131,
			"type":"VEC4"
		},
		{
			"bufferView":53,
			"componentType":5126,
			"count":2,
			"type":"VEC3"
		},
		{
			"bufferView":54,
			"componentType":5126,
			"count":2,
			"type":"VEC3"
		},
		{
			"bufferView":55,
			"componentType":5126,
			"count":2,
			"type":"VEC4"
		},
		{
			"bufferView":56,
			"componentType":5126,
			"count":2,
			"type":"VEC3"
		}
	],
	"bufferViews":[
		{
			"buffer":0,
			"byteLength":51792,
			"byteOffset":0,
			"target":34962
		},
		{
			"buffer":0,
			"byteLength":51792,
			"byteOffset":51792,
			"target":34962
		},
		{
			"buffer":0,
			"byteLength":34528,
			"byteOffset":103584,
			"target":34962
		},
		{
			"buffer":0,
			"byteLength":17264,
			"byteOffset":138112,
			"target":34962
		},
		{
			"buffer":0,
			"byteLength":69056,
			"byteOffset":155376,
			"target":34962
		},
		{
			"buffer":0,
			"byteLength":48228,
			"byteOffset":224432,
			"target":34963
		},
		{
			"buffer":0,
			"byteLength":512,
			"byteOffset":272660
		},
		{
			"buffer":0,
			"byteLength":90096,
			"byteOffset":273172,
			"target":34962
		},
		{
			"buffer":0,
			"byteLength":90096,
			"byteOffset":363268,
			"target":34962
		},
		{
			"buffer":0,
			"byteLength":60064,
			"byteOffset":453364,
			"target":34962
		},
		{
			"buffer":0,
			"byteLength":30032,
			"byteOffset":513428,
			"target":34962
		},
		{
			"buffer":0,
			"byteLength":120128,
			"byteOffset":543460,
			"target":34962
		},
		{
			"buffer":0,
			"byteLength":83748,
			"byteOffset":663588,
			"target":34963
		},
		{
			"buffer":0,
			"byteLength":15984,
			"byteOffset":747336,
			"target":34962
		},
		{
			"buffer":0,
			"byteLength":15984,
			"byteOffset":763320,
			"target":34962
		},
		{
			"buffer":0,
			"byteLength":10656,
			"byteOffset":779304,
			"target":34962
		},
		{
			"buffer":0,
			"byteLength":5328,
			"byteOffset":789960,
			"target":34962
		},
		{
			"buffer":0,
			"byteLength":21312,
			"byteOffset":795288,
			"target":34962
		},
		{
			"buffer":0,
			"byteLength":14820,
			"byteOffset":816600,
			"target":34963
		},
		{
			"buffer":0,
			"byteLength":6708,
			"byteOffset":831420,
			"target":34962
		},
		{
			"buffer":0,
			"byteLength":6708,
			"byteOffset":838128,
			"target":34962
		},
		{
			"buffer":0,
			"byteLength":4472,
			"byteOffset":844836,
			"target":34962
		},
		{
			"buffer":0,
			"byteLength":2236,
			"byteOffset":849308,
			"target":34962
		},
		{
			"buffer":0,
			"byteLength":8944,
			"byteOffset":851544,
			"target":34962
		},
		{
			"buffer":0,
			"byteLength":6192,
			"byteOffset":860488,
			"target":34963
		},
		{
			"buffer":0,
			"byteLength":41868,
			"byteOffset":866680,
			"target":34962
		},
		{
			"buffer":0,
			"byteLength":41868,
			"byteOffset":908548,
			"target":34962
		},
		{
			"buffer":0,
			"byteLength":27912,
			"byteOffset":950416,
			"target":34962
		},
		{
			"buffer":0,
			"byteLength":13956,
			"byteOffset":978328,
			"target":34962
		},
		{
			"buffer":0,
			"byteLength":55824,
			"byteOffset":992284,
			"target":34962
		},
		{
			"buffer":0,
			"byteLength":39396,
			"byteOffset":1048108,
			"target":34963
		},
		{
			"buffer":0,
			"byteLength":8,
			"byteOffset":1087504
		},
		{
			"buffer":0,
			"byteLength":24,
			"byteOffset":1087512
		},
		{
			"buffer":0,
			"byteLength":32,
			"byteOffset":1087536
		},
		{
			"buffer":0,
			"byteLength":24,
			"byteOffset":1087568
		},
		{
			"buffer":0,
			"byteLength":24,
			"byteOffset":1087592
		},
		{
			"buffer":0,
			"byteLength":524,
			"byteOffset":1087616
		},
		{
			"buffer":0,
			"byteLength":2096,
			"byteOffset":1088140
		},
		{
			"buffer":0,
			"byteLength":24,
			"byteOffset":1090236
		},
		{
			"buffer":0,
			"byteLength":24,
			"byteOffset":1090260
		},
		{
			"buffer":0,
			"byteLength":2096,
			"byteOffset":1090284
		},
		{
			"buffer":0,
			"byteLength":24,
			"byteOffset":1092380
		},
		{
			"buffer":0,
			"byteLength":24,
			"byteOffset":1092404
		},
		{
			"buffer":0,
			"byteLength":32,
			"byteOffset":1092428
		},
		{
			"buffer":0,
			"byteLength":24,
			"byteOffset":1092460
		},
		{
			"buffer":0,
			"byteLength":24,
			"byteOffset":1092484
		},
		{
			"buffer":0,
			"byteLength":32,
			"byteOffset":1092508
		},
		{
			"buffer":0,
			"byteLength":24,
			"byteOffset":1092540
		},
		{
			"buffer":0,
			"byteLength":24,
			"byteOffset":1092564
		},
		{
			"buffer":0,
			"byteLength":2096,
			"byteOffset":1092588
		},
		{
			"buffer":0,
			"byteLength":24,
			"byteOffset":1094684
		},
		{
			"buffer":0,
			"byteLength":24,
			"byteOffset":1094708
		},
		{
			"buffer":0,
			"byteLength":2096,
			"byteOffset":1094732
		},
		{
			"buffer":0,
			"byteLength":24,
			"byteOffset":1096828
		},
		{
			"buffer":0,
			"byteLength":24,
			"byteOffset":1096852
		},
		{
			"buffer":0,
			"byteLength":32,
			"byteOffset":1096876
		},
		{
			"buffer":0,
			"byteLength":24,
			"byteOffset":1096908
		}
	],
	"samplers":[
		{
			"magFilter":9729,
			"minFilter":9987
		}
	],
	"buffers":[
		{
			"byteLength":1096932,
			"uri":"Arm_Movement.bin"
		}
	]
}
