{
	"asset":{
		"generator":"Khronos glTF Blender I/O v4.4.55",
		"version":"2.0"
	},
	"scene":0,
	"scenes":[
		{
			"name":"Scene",
			"nodes":[
				10
			]
		}
	],
	"nodes":[
		{
			"name":"Wrist",
			"rotation":[
				-1.776356733521132e-15,
				-5.960463766996327e-08,
				0,
				1
			],
			"scale":[
				1.0000001192092896,
				1,
				1.0000001192092896
			],
			"translation":[
				2.5326356887817383,
				-0.8169252872467041,
				-2.1097129376812518e-07
			]
		},
		{
			"children":[
				0
			],
			"name":"Elbow",
			"rotation":[
				-0.9995422959327698,
				-7.259545849386869e-15,
				0.030253518372774124,
				1.5915991542089455e-15
			],
			"translation":[
				3.0671377182006836,
				-0.16958624124526978,
				0.010666520334780216
			]
		},
		{
			"children":[
				1
			],
			"name":"Arm",
			"rotation":[
				2.250838014914271e-15,
				0.6141387820243835,
				-5.627094507890085e-16,
				0.7891980409622192
			],
			"scale":[
				0.9999998807907104,
				1,
				0.9999998807907104
			],
			"translation":[
				1.1708259582519531,
				-1.3903400031267665e-07,
				8.810540066406247e-07
			]
		},
		{
			"children":[
				2
			],
			"name":"Shoulder1",
			"rotation":[
				2.2210897942902263e-16,
				-0.9997101426124573,
				-1.421497468345745e-14,
				0.024075163528323174
			],
			"translation":[
				-0.9117016792297363,
				-1.2987542152404785,
				-15.074788093566895
			]
		},
		{
			"name":"Wrist.001",
			"rotation":[
				-1.776356733521132e-15,
				-5.960463766996327e-08,
				0,
				1
			],
			"scale":[
				1.0000001192092896,
				1,
				1.0000001192092896
			],
			"translation":[
				2.5326356887817383,
				-0.8169252872467041,
				-2.1097129376812518e-07
			]
		},
		{
			"children":[
				4
			],
			"name":"Elbow.001",
			"rotation":[
				-0.9995422959327698,
				-7.259545849386869e-15,
				0.030253518372774124,
				1.5915991542089455e-15
			],
			"translation":[
				3.0671377182006836,
				-0.16958624124526978,
				0.010666520334780216
			]
		},
		{
			"children":[
				5
			],
			"name":"Arm.001",
			"rotation":[
				2.250838014914271e-15,
				0.6141387820243835,
				-5.627094507890085e-16,
				0.7891980409622192
			],
			"scale":[
				0.9999998807907104,
				1,
				0.9999998807907104
			],
			"translation":[
				1.1708259582519531,
				-1.3903400031267665e-07,
				8.810540066406247e-07
			]
		},
		{
			"children":[
				6
			],
			"name":"Shoulder2",
			"rotation":[
				2.2210897942902263e-16,
				-0.9997101426124573,
				-1.421497468345745e-14,
				0.024075163528323174
			],
			"translation":[
				-0.9117016792297363,
				-1.2987542152404785,
				-15.074788093566895
			]
		},
		{
			"mesh":0,
			"name":"Arm_Muscle",
			"skin":0
		},
		{
			"mesh":1,
			"name":"Arm_Skeleton",
			"skin":0
		},
		{
			"children":[
				8,
				9,
				3,
				7
			],
			"name":"Armature",
			"rotation":[
				0.70710688829422,
				0,
				0,
				0.7071066498756409
			],
			"scale":[
				0.009999999776482582,
				0.009999999776482582,
				0.009999999776482582
			]
		}
	],
	"animations":[
		{
			"channels":[
				{
					"sampler":0,
					"target":{
						"node":3,
						"path":"translation"
					}
				},
				{
					"sampler":1,
					"target":{
						"node":3,
						"path":"rotation"
					}
				},
				{
					"sampler":2,
					"target":{
						"node":3,
						"path":"scale"
					}
				},
				{
					"sampler":3,
					"target":{
						"node":2,
						"path":"translation"
					}
				},
				{
					"sampler":4,
					"target":{
						"node":2,
						"path":"rotation"
					}
				},
				{
					"sampler":5,
					"target":{
						"node":2,
						"path":"scale"
					}
				},
				{
					"sampler":6,
					"target":{
						"node":1,
						"path":"translation"
					}
				},
				{
					"sampler":7,
					"target":{
						"node":1,
						"path":"rotation"
					}
				},
				{
					"sampler":8,
					"target":{
						"node":1,
						"path":"scale"
					}
				},
				{
					"sampler":9,
					"target":{
						"node":0,
						"path":"translation"
					}
				},
				{
					"sampler":10,
					"target":{
						"node":0,
						"path":"rotation"
					}
				},
				{
					"sampler":11,
					"target":{
						"node":0,
						"path":"scale"
					}
				},
				{
					"sampler":12,
					"target":{
						"node":7,
						"path":"translation"
					}
				},
				{
					"sampler":13,
					"target":{
						"node":7,
						"path":"rotation"
					}
				},
				{
					"sampler":14,
					"target":{
						"node":7,
						"path":"scale"
					}
				},
				{
					"sampler":15,
					"target":{
						"node":6,
						"path":"translation"
					}
				},
				{
					"sampler":16,
					"target":{
						"node":6,
						"path":"rotation"
					}
				},
				{
					"sampler":17,
					"target":{
						"node":6,
						"path":"scale"
					}
				},
				{
					"sampler":18,
					"target":{
						"node":5,
						"path":"translation"
					}
				},
				{
					"sampler":19,
					"target":{
						"node":5,
						"path":"rotation"
					}
				},
				{
					"sampler":20,
					"target":{
						"node":5,
						"path":"scale"
					}
				},
				{
					"sampler":21,
					"target":{
						"node":4,
						"path":"translation"
					}
				},
				{
					"sampler":22,
					"target":{
						"node":4,
						"path":"rotation"
					}
				},
				{
					"sampler":23,
					"target":{
						"node":4,
						"path":"scale"
					}
				}
			],
			"name":"Armature|Take 001|BaseLayer",
			"samplers":[
				{
					"input":13,
					"interpolation":"STEP",
					"output":14
				},
				{
					"input":13,
					"interpolation":"STEP",
					"output":15
				},
				{
					"input":13,
					"interpolation":"STEP",
					"output":16
				},
				{
					"input":13,
					"interpolation":"STEP",
					"output":17
				},
				{
					"input":18,
					"interpolation":"LINEAR",
					"output":19
				},
				{
					"input":13,
					"interpolation":"STEP",
					"output":20
				},
				{
					"input":13,
					"interpolation":"STEP",
					"output":21
				},
				{
					"input":18,
					"interpolation":"LINEAR",
					"output":22
				},
				{
					"input":13,
					"interpolation":"STEP",
					"output":23
				},
				{
					"input":13,
					"interpolation":"LINEAR",
					"output":24
				},
				{
					"input":13,
					"interpolation":"LINEAR",
					"output":25
				},
				{
					"input":13,
					"interpolation":"STEP",
					"output":26
				},
				{
					"input":13,
					"interpolation":"STEP",
					"output":27
				},
				{
					"input":13,
					"interpolation":"STEP",
					"output":28
				},
				{
					"input":13,
					"interpolation":"STEP",
					"output":29
				},
				{
					"input":13,
					"interpolation":"STEP",
					"output":30
				},
				{
					"input":18,
					"interpolation":"LINEAR",
					"output":31
				},
				{
					"input":13,
					"interpolation":"STEP",
					"output":32
				},
				{
					"input":13,
					"interpolation":"STEP",
					"output":33
				},
				{
					"input":18,
					"interpolation":"LINEAR",
					"output":34
				},
				{
					"input":13,
					"interpolation":"STEP",
					"output":35
				},
				{
					"input":13,
					"interpolation":"LINEAR",
					"output":36
				},
				{
					"input":13,
					"interpolation":"LINEAR",
					"output":37
				},
				{
					"input":13,
					"interpolation":"STEP",
					"output":38
				}
			]
		}
	],
	"materials":[
		{
			"doubleSided":true,
			"name":"blinn1.001",
			"normalTexture":{
				"index":0
			},
			"pbrMetallicRoughness":{
				"baseColorTexture":{
					"index":1
				},
				"metallicFactor":0.5,
				"roughnessFactor":0.7487671971321106
			}
		},
		{
			"doubleSided":true,
			"name":"blinn2.001",
			"normalTexture":{
				"index":2
			},
			"pbrMetallicRoughness":{
				"baseColorTexture":{
					"index":3
				},
				"metallicFactor":0.5,
				"roughnessFactor":0.7487671971321106
			}
		}
	],
	"meshes":[
		{
			"name":"Mesh.002",
			"primitives":[
				{
					"attributes":{
						"POSITION":0,
						"NORMAL":1,
						"TEXCOORD_0":2,
						"JOINTS_0":3,
						"WEIGHTS_0":4
					},
					"indices":5,
					"material":0
				}
			]
		},
		{
			"name":"Mesh.003",
			"primitives":[
				{
					"attributes":{
						"POSITION":7,
						"NORMAL":8,
						"TEXCOORD_0":9,
						"JOINTS_0":10,
						"WEIGHTS_0":11
					},
					"indices":12,
					"material":1
				}
			]
		}
	],
	"textures":[
		{
			"sampler":0,
			"source":0
		},
		{
			"sampler":0,
			"source":1
		},
		{
			"sampler":0,
			"source":2
		},
		{
			"sampler":0,
			"source":3
		}
	],
	"images":[
		{
			"mimeType":"image/png",
			"name":"anatomy_Muscle_Normal",
			"uri":"anatomy_Muscle_Normal.png"
		},
		{
			"mimeType":"image/png",
			"name":"anatomy_Muscle_AlbedoTransparency",
			"uri":"anatomy_Muscle_AlbedoTransparency.png"
		},
		{
			"mimeType":"image/png",
			"name":"anatomy_Skeleton_Normal",
			"uri":"anatomy_Skeleton_Normal.png"
		},
		{
			"mimeType":"image/png",
			"name":"file10",
			"uri":"file10.png"
		}
	],
	"skins":[
		{
			"inverseBindMatrices":6,
			"joints":[
				3,
				2,
				1,
				0,
				7,
				6,
				5,
				4
			],
			"name":"Armature"
		}
	],
	"accessors":[
		{
			"bufferView":0,
			"componentType":5126,
			"count":12888,
			"max":[
				-0.00751369958743453,
				0.15591399371623993,
				-0.0034709603060036898
			],
			"min":[
				-0.032192591577768326,
				0.09128410369157791,
				-0.02225683256983757
			],
			"type":"VEC3"
		},
		{
			"bufferView":1,
			"componentType":5126,
			"count":12888,
			"type":"VEC3"
		},
		{
			"bufferView":2,
			"componentType":5126,
			"count":12888,
			"type":"VEC2"
		},
		{
			"bufferView":3,
			"componentType":5121,
			"count":12888,
			"type":"VEC4"
		},
		{
			"bufferView":4,
			"componentType":5126,
			"count":12888,
			"type":"VEC4"
		},
		{
			"bufferView":5,
			"componentType":5123,
			"count":72078,
			"type":"SCALAR"
		},
		{
			"bufferView":6,
			"componentType":5126,
			"count":8,
			"type":"MAT4"
		},
		{
			"bufferView":7,
			"componentType":5126,
			"count":4316,
			"max":[
				-0.00234740087762475,
				0.15567846596240997,
				-0.0026055232156068087
			],
			"min":[
				-0.03187508508563042,
				0.09448716789484024,
				-0.02167593687772751
			],
			"type":"VEC3"
		},
		{
			"bufferView":8,
			"componentType":5126,
			"count":4316,
			"type":"VEC3"
		},
		{
			"bufferView":9,
			"componentType":5126,
			"count":4316,
			"type":"VEC2"
		},
		{
			"bufferView":10,
			"componentType":5121,
			"count":4316,
			"type":"VEC4"
		},
		{
			"bufferView":11,
			"componentType":5126,
			"count":4316,
			"type":"VEC4"
		},
		{
			"bufferView":12,
			"componentType":5123,
			"count":24114,
			"type":"SCALAR"
		},
		{
			"bufferView":13,
			"componentType":5126,
			"count":2,
			"max":[
				1.0833333333333333
			],
			"min":[
				0
			],
			"type":"SCALAR"
		},
		{
			"bufferView":14,
			"componentType":5126,
			"count":2,
			"type":"VEC3"
		},
		{
			"bufferView":15,
			"componentType":5126,
			"count":2,
			"type":"VEC4"
		},
		{
			"bufferView":16,
			"componentType":5126,
			"count":2,
			"type":"VEC3"
		},
		{
			"bufferView":17,
			"componentType":5126,
			"count":2,
			"type":"VEC3"
		},
		{
			"bufferView":18,
			"componentType":5126,
			"count":27,
			"max":[
				1.0833333333333333
			],
			"min":[
				0
			],
			"type":"SCALAR"
		},
		{
			"bufferView":19,
			"componentType":5126,
			"count":27,
			"type":"VEC4"
		},
		{
			"bufferView":20,
			"componentType":5126,
			"count":2,
			"type":"VEC3"
		},
		{
			"bufferView":21,
			"componentType":5126,
			"count":2,
			"type":"VEC3"
		},
		{
			"bufferView":22,
			"componentType":5126,
			"count":27,
			"type":"VEC4"
		},
		{
			"bufferView":23,
			"componentType":5126,
			"count":2,
			"type":"VEC3"
		},
		{
			"bufferView":24,
			"componentType":5126,
			"count":2,
			"type":"VEC3"
		},
		{
			"bufferView":25,
			"componentType":5126,
			"count":2,
			"type":"VEC4"
		},
		{
			"bufferView":26,
			"componentType":5126,
			"count":2,
			"type":"VEC3"
		},
		{
			"bufferView":27,
			"componentType":5126,
			"count":2,
			"type":"VEC3"
		},
		{
			"bufferView":28,
			"componentType":5126,
			"count":2,
			"type":"VEC4"
		},
		{
			"bufferView":29,
			"componentType":5126,
			"count":2,
			"type":"VEC3"
		},
		{
			"bufferView":30,
			"componentType":5126,
			"count":2,
			"type":"VEC3"
		},
		{
			"bufferView":31,
			"componentType":5126,
			"count":27,
			"type":"VEC4"
		},
		{
			"bufferView":32,
			"componentType":5126,
			"count":2,
			"type":"VEC3"
		},
		{
			"bufferView":33,
			"componentType":5126,
			"count":2,
			"type":"VEC3"
		},
		{
			"bufferView":34,
			"componentType":5126,
			"count":27,
			"type":"VEC4"
		},
		{
			"bufferView":35,
			"componentType":5126,
			"count":2,
			"type":"VEC3"
		},
		{
			"bufferView":36,
			"componentType":5126,
			"count":2,
			"type":"VEC3"
		},
		{
			"bufferView":37,
			"componentType":5126,
			"count":2,
			"type":"VEC4"
		},
		{
			"bufferView":38,
			"componentType":5126,
			"count":2,
			"type":"VEC3"
		}
	],
	"bufferViews":[
		{
			"buffer":0,
			"byteLength":154656,
			"byteOffset":0,
			"target":34962
		},
		{
			"buffer":0,
			"byteLength":154656,
			"byteOffset":154656,
			"target":34962
		},
		{
			"buffer":0,
			"byteLength":103104,
			"byteOffset":309312,
			"target":34962
		},
		{
			"buffer":0,
			"byteLength":51552,
			"byteOffset":412416,
			"target":34962
		},
		{
			"buffer":0,
			"byteLength":206208,
			"byteOffset":463968,
			"target":34962
		},
		{
			"buffer":0,
			"byteLength":144156,
			"byteOffset":670176,
			"target":34963
		},
		{
			"buffer":0,
			"byteLength":512,
			"byteOffset":814332
		},
		{
			"buffer":0,
			"byteLength":51792,
			"byteOffset":814844,
			"target":34962
		},
		{
			"buffer":0,
			"byteLength":51792,
			"byteOffset":866636,
			"target":34962
		},
		{
			"buffer":0,
			"byteLength":34528,
			"byteOffset":918428,
			"target":34962
		},
		{
			"buffer":0,
			"byteLength":17264,
			"byteOffset":952956,
			"target":34962
		},
		{
			"buffer":0,
			"byteLength":69056,
			"byteOffset":970220,
			"target":34962
		},
		{
			"buffer":0,
			"byteLength":48228,
			"byteOffset":1039276,
			"target":34963
		},
		{
			"buffer":0,
			"byteLength":8,
			"byteOffset":1087504
		},
		{
			"buffer":0,
			"byteLength":24,
			"byteOffset":1087512
		},
		{
			"buffer":0,
			"byteLength":32,
			"byteOffset":1087536
		},
		{
			"buffer":0,
			"byteLength":24,
			"byteOffset":1087568
		},
		{
			"buffer":0,
			"byteLength":24,
			"byteOffset":1087592
		},
		{
			"buffer":0,
			"byteLength":108,
			"byteOffset":1087616
		},
		{
			"buffer":0,
			"byteLength":432,
			"byteOffset":1087724
		},
		{
			"buffer":0,
			"byteLength":24,
			"byteOffset":1088156
		},
		{
			"buffer":0,
			"byteLength":24,
			"byteOffset":1088180
		},
		{
			"buffer":0,
			"byteLength":432,
			"byteOffset":1088204
		},
		{
			"buffer":0,
			"byteLength":24,
			"byteOffset":1088636
		},
		{
			"buffer":0,
			"byteLength":24,
			"byteOffset":1088660
		},
		{
			"buffer":0,
			"byteLength":32,
			"byteOffset":1088684
		},
		{
			"buffer":0,
			"byteLength":24,
			"byteOffset":1088716
		},
		{
			"buffer":0,
			"byteLength":24,
			"byteOffset":1088740
		},
		{
			"buffer":0,
			"byteLength":32,
			"byteOffset":1088764
		},
		{
			"buffer":0,
			"byteLength":24,
			"byteOffset":1088796
		},
		{
			"buffer":0,
			"byteLength":24,
			"byteOffset":1088820
		},
		{
			"buffer":0,
			"byteLength":432,
			"byteOffset":1088844
		},
		{
			"buffer":0,
			"byteLength":24,
			"byteOffset":1089276
		},
		{
			"buffer":0,
			"byteLength":24,
			"byteOffset":1089300
		},
		{
			"buffer":0,
			"byteLength":432,
			"byteOffset":1089324
		},
		{
			"buffer":0,
			"byteLength":24,
			"byteOffset":1089756
		},
		{
			"buffer":0,
			"byteLength":24,
			"byteOffset":1089780
		},
		{
			"buffer":0,
			"byteLength":32,
			"byteOffset":1089804
		},
		{
			"buffer":0,
			"byteLength":24,
			"byteOffset":1089836
		}
	],
	"samplers":[
		{
			"magFilter":9729,
			"minFilter":9987
		}
	],
	"buffers":[
		{
			"byteLength":1089860,
			"uri":"Arm_Movement.bin"
		}
	]
}
