{
	"asset":{
		"generator":"Khronos glTF Blender I/O v4.4.55",
		"version":"2.0"
	},
	"extensionsUsed":[
		"KHR_materials_specular"
	],
	"scene":0,
	"scenes":[
		{
			"name":"Scene",
			"nodes":[
				0,
				4
			]
		}
	],
	"nodes":[
		{
			"mesh":0,
			"name":"Dissolve:T_Rex_Skeleton_phong4.001",
			"rotation":[
				0.5155529975891113,
				-0.48394739627838135,
				0.48394739627838135,
				0.5155531167984009
			],
			"scale":[
				0.597879946231842,
				0.5978798270225525,
				0.5978798866271973
			],
			"translation":[
				-0.5535755157470703,
				1.5168832540512085,
				0.06716108322143555
			]
		},
		{
			"mesh":1,
			"name":"polySurface1",
			"rotation":[
				0,
				0,
				0.16658103466033936,
				0.9860277771949768
			]
		},
		{
			"mesh":2,
			"name":"polySurface2",
			"rotation":[
				0,
				0,
				0.16658103466033936,
				0.9860277771949768
			]
		},
		{
			"name":"transform1",
			"rotation":[
				-0.70710688829422,
				0,
				0,
				0.7071066498756409
			],
			"scale":[
				100,
				100.00001525878906,
				100.00001525878906
			]
		},
		{
			"children":[
				1,
				2,
				3
			],
			"name":"Dissolve:pPlane1_lambert2",
			"rotation":[
				0.582427978515625,
				-0.40097105503082275,
				0.40097102522850037,
				0.5824279189109802
			],
			"scale":[
				0.5978800058364868,
				0.5978798270225525,
				0.5978800058364868
			],
			"translation":[
				-0.5535755157470703,
				1.722165822982788,
				0.06716108322143555
			]
		}
	],
	"materials":[
		{
			"doubleSided":true,
			"extensions":{
				"KHR_materials_specular":{
					"specularColorFactor":[
						2.0,
						2.0,
						2.0
					]
				}
			},
			"name":"Dissolve:phong5.001",
			"normalTexture":{
				"index":0
			},
			"pbrMetallicRoughness":{
				"baseColorTexture":{
					"index":1
				},
				"metallicFactor":0,
				"roughnessFactor":0.7613292932510376
			}
		},
		{
			"doubleSided":true,
			"extensions":{
				"KHR_materials_specular":{
					"specularColorFactor":[
						2,
						2,
						2
					],
					"specularColorTexture":{
						"index":2
					}
				}
			},
			"name":"Surface",
			"normalTexture":{
				"index":3,
				"scale":0.8999999761581421
			},
			"pbrMetallicRoughness":{
				"baseColorTexture":{
					"index":4
				},
				"metallicFactor":0,
				"roughnessFactor":0.32620030641555786
			}
		},
		{
			"alphaMode":"BLEND",
			"doubleSided":true,
			"extensions":{
				"KHR_materials_specular":{
					"specularColorFactor":[
						2,
						2,
						2
					],
					"specularColorTexture":{
						"index":5
					}
				}
			},
			"name":"Stratum",
			"normalTexture":{
				"index":6
			},
			"pbrMetallicRoughness":{
				"baseColorFactor":[
					1,
					1,
					1,
					0.4894259572029114
				],
				"baseColorTexture":{
					"index":7
				},
				"metallicFactor":0
			}
		},
		{
			"doubleSided":true,
			"extensions":{
				"KHR_materials_specular":{
					"specularColorFactor":[
						2,
						2,
						2
					],
					"specularColorTexture":{
						"index":8
					}
				}
			},
			"name":"Dissolve:lambert3",
			"normalTexture":{
				"index":9
			},
			"pbrMetallicRoughness":{
				"baseColorTexture":{
					"index":10
				},
				"metallicFactor":0,
				"roughnessFactor":0.8892414569854736
			}
		}
	],
	"meshes":[
		{
			"name":"Mesh.149",
			"primitives":[
				{
					"attributes":{
						"POSITION":0,
						"NORMAL":1,
						"TEXCOORD_0":2
					},
					"indices":3,
					"material":0
				}
			]
		},
		{
			"name":"Mesh.145",
			"primitives":[
				{
					"attributes":{
						"POSITION":4,
						"NORMAL":5,
						"TEXCOORD_0":6
					},
					"indices":7,
					"material":1
				},
				{
					"attributes":{
						"POSITION":8,
						"NORMAL":9,
						"TEXCOORD_0":10
					},
					"indices":11,
					"material":2
				}
			]
		},
		{
			"name":"Mesh.147",
			"primitives":[
				{
					"attributes":{
						"POSITION":12,
						"NORMAL":13,
						"TEXCOORD_0":14
					},
					"indices":15,
					"material":3
				}
			]
		}
	],
	"textures":[
		{
			"sampler":0,
			"source":0
		},
		{
			"sampler":0,
			"source":1
		},
		{
			"sampler":0,
			"source":2
		},
		{
			"sampler":0,
			"source":3
		},
		{
			"sampler":0,
			"source":4
		},
		{
			"sampler":0,
			"source":5
		},
		{
			"sampler":0,
			"source":6
		},
		{
			"sampler":0,
			"source":7
		},
		{
			"sampler":0,
			"source":8
		},
		{
			"sampler":0,
			"source":9
		},
		{
			"sampler":0,
			"source":10
		}
	],
	"images":[
		{
			"mimeType":"image/png",
			"name":"dead3_Fossile_Normal",
			"uri":"dead3_Fossile_Normal.png"
		},
		{
			"mimeType":"image/png",
			"name":"dead3_Fossile_AlbedoTransparency",
			"uri":"dead3_Fossile_AlbedoTransparency.png"
		},
		{
			"mimeType":"image/png",
			"name":"dead3_Surface_SpecularSmoothness",
			"uri":"dead3_Surface_SpecularSmoothness.png"
		},
		{
			"mimeType":"image/png",
			"name":"dead3_Surface_Normal",
			"uri":"dead3_Surface_Normal.png"
		},
		{
			"mimeType":"image/png",
			"name":"dead3_Surface_AlbedoTransparency",
			"uri":"dead3_Surface_AlbedoTransparency.png"
		},
		{
			"mimeType":"image/png",
			"name":"dead3_Stratum_SpecularSmoothness",
			"uri":"dead3_Stratum_SpecularSmoothness.png"
		},
		{
			"mimeType":"image/png",
			"name":"dead3_Stratum_Normal",
			"uri":"dead3_Stratum_Normal.png"
		},
		{
			"mimeType":"image/png",
			"name":"dead3_Stratum_AlbedoTransparency",
			"uri":"dead3_Stratum_AlbedoTransparency.png"
		},
		{
			"mimeType":"image/png",
			"name":"dead3_Base_SpecularSmoothness",
			"uri":"dead3_Base_SpecularSmoothness.png"
		},
		{
			"mimeType":"image/png",
			"name":"dead3_Base_Normal",
			"uri":"dead3_Base_Normal.png"
		},
		{
			"mimeType":"image/png",
			"name":"dead3_Base_AlbedoTransparency",
			"uri":"dead3_Base_AlbedoTransparency.png"
		}
	],
	"accessors":[
		{
			"bufferView":0,
			"componentType":5126,
			"count":120163,
			"max":[
				4.263065814971924,
				3.2121269702911377,
				-0.21533800661563873
			],
			"min":[
				-2.927489995956421,
				-2.0756030082702637,
				-1.6002130508422852
			],
			"type":"VEC3"
		},
		{
			"bufferView":1,
			"componentType":5126,
			"count":120163,
			"type":"VEC3"
		},
		{
			"bufferView":2,
			"componentType":5126,
			"count":120163,
			"type":"VEC2"
		},
		{
			"bufferView":3,
			"componentType":5125,
			"count":414018,
			"type":"SCALAR"
		},
		{
			"bufferView":4,
			"componentType":5126,
			"count":121,
			"max":[
				5.7040910720825195,
				5.7040910720825195,
				-2.5172247886657715
			],
			"min":[
				-5.7040910720825195,
				-5.7040910720825195,
				-2.9367623329162598
			],
			"type":"VEC3"
		},
		{
			"bufferView":5,
			"componentType":5126,
			"count":121,
			"type":"VEC3"
		},
		{
			"bufferView":6,
			"componentType":5126,
			"count":121,
			"type":"VEC2"
		},
		{
			"bufferView":7,
			"componentType":5123,
			"count":600,
			"type":"SCALAR"
		},
		{
			"bufferView":8,
			"componentType":5126,
			"count":82,
			"max":[
				5.7040910720825195,
				5.7040910720825195,
				-0.018657000735402107
			],
			"min":[
				-5.7040910720825195,
				-5.7040910720825195,
				-2.895782470703125
			],
			"type":"VEC3"
		},
		{
			"bufferView":9,
			"componentType":5126,
			"count":82,
			"type":"VEC3"
		},
		{
			"bufferView":10,
			"componentType":5126,
			"count":82,
			"type":"VEC2"
		},
		{
			"bufferView":11,
			"componentType":5123,
			"count":240,
			"type":"SCALAR"
		},
		{
			"bufferView":12,
			"componentType":5126,
			"count":121,
			"max":[
				5.7040910720825195,
				5.7040910720825195,
				-0.018657000735402107
			],
			"min":[
				-5.7040910720825195,
				-5.7040910720825195,
				-0.8934490084648132
			],
			"type":"VEC3"
		},
		{
			"bufferView":13,
			"componentType":5126,
			"count":121,
			"type":"VEC3"
		},
		{
			"bufferView":14,
			"componentType":5126,
			"count":121,
			"type":"VEC2"
		},
		{
			"bufferView":15,
			"componentType":5123,
			"count":600,
			"type":"SCALAR"
		}
	],
	"bufferViews":[
		{
			"buffer":0,
			"byteLength":1441956,
			"byteOffset":0,
			"target":34962
		},
		{
			"buffer":0,
			"byteLength":1441956,
			"byteOffset":1441956,
			"target":34962
		},
		{
			"buffer":0,
			"byteLength":961304,
			"byteOffset":2883912,
			"target":34962
		},
		{
			"buffer":0,
			"byteLength":1656072,
			"byteOffset":3845216,
			"target":34963
		},
		{
			"buffer":0,
			"byteLength":1452,
			"byteOffset":5501288,
			"target":34962
		},
		{
			"buffer":0,
			"byteLength":1452,
			"byteOffset":5502740,
			"target":34962
		},
		{
			"buffer":0,
			"byteLength":968,
			"byteOffset":5504192,
			"target":34962
		},
		{
			"buffer":0,
			"byteLength":1200,
			"byteOffset":5505160,
			"target":34963
		},
		{
			"buffer":0,
			"byteLength":984,
			"byteOffset":5506360,
			"target":34962
		},
		{
			"buffer":0,
			"byteLength":984,
			"byteOffset":5507344,
			"target":34962
		},
		{
			"buffer":0,
			"byteLength":656,
			"byteOffset":5508328,
			"target":34962
		},
		{
			"buffer":0,
			"byteLength":480,
			"byteOffset":5508984,
			"target":34963
		},
		{
			"buffer":0,
			"byteLength":1452,
			"byteOffset":5509464,
			"target":34962
		},
		{
			"buffer":0,
			"byteLength":1452,
			"byteOffset":5510916,
			"target":34962
		},
		{
			"buffer":0,
			"byteLength":968,
			"byteOffset":5512368,
			"target":34962
		},
		{
			"buffer":0,
			"byteLength":1200,
			"byteOffset":5513336,
			"target":34963
		}
	],
	"samplers":[
		{
			"magFilter":9729,
			"minFilter":9987
		}
	],
	"buffers":[
		{
			"byteLength":5514536,
			"uri":"Dino_Death_Scene3.bin"
		}
	]
}
