{
	"asset":{
		"generator":"Khronos glTF Blender I/O v4.4.55",
		"version":"2.0"
	},
	"extensionsUsed":[
		"KHR_materials_specular",
		"KHR_materials_ior"
	],
	"scene":0,
	"scenes":[
		{
			"name":"Scene",
			"nodes":[
				1,
				2,
				3,
				4,
				5,
				6,
				7,
				8,
				9
			]
		}
	],
	"nodes":[
		{
			"mesh":0,
			"name":"Rectangle",
			"rotation":[
				-0.5,
				-0.5,
				-0.5,
				0.5
			],
			"scale":[
				2.8582067489624023,
				2.573988914489746,
				1
			],
			"translation":[
				331.82635498046875,
				1,
				-158.1478271484375
			]
		},
		{
			"children":[
				0
			],
			"name":"Scene"
		},
		{
			"mesh":1,
			"name":"lab_beaker_a",
			"rotation":[
				-0.9984164834022522,
				0,
				-0.05625559762120247,
				7.293490966731042e-08
			],
			"scale":[
				0.014557108283042908,
				0.014557113870978355,
				0.01455711293965578
			],
			"translation":[
				-0.11000000685453415,
				1.2216886281967163,
				0
			]
		},
		{
			"mesh":2,
			"name":"lab_beaker_a1",
			"rotation":[
				-0.9984164834022522,
				0,
				-0.05625559762120247,
				7.293490966731042e-08
			],
			"scale":[
				0.014557108283042908,
				0.014557113870978355,
				0.01455711293965578
			],
			"translation":[
				0.07999997586011887,
				1.2216886281967163,
				0
			]
		},
		{
			"mesh":3,
			"name":"st_set_Hatthylla_ljus_penna_bok_matta_vaska:polySurface170",
			"rotation":[
				0.70710688829422,
				0,
				0,
				0.7071066498756409
			],
			"scale":[
				0.13994580507278442,
				0.13994581997394562,
				0.03293902054429054
			],
			"translation":[
				-3.611872673034668,
				0.8991543650627136,
				0.4579022526741028
			]
		},
		{
			"mesh":4,
			"name":"polySurface170",
			"rotation":[
				0.70710688829422,
				0,
				0,
				0.7071066498756409
			],
			"scale":[
				0.13994580507278442,
				0.13994581997394562,
				0.03293902054429054
			],
			"translation":[
				-3.8085296154022217,
				0.8991543650627136,
				0.4579022526741028
			]
		},
		{
			"mesh":5,
			"name":"pTorus1",
			"rotation":[
				0.7071069478988647,
				0,
				0,
				0.7071066498756409
			],
			"scale":[
				0.07790698856115341,
				0.07790699601173401,
				0.07790699601173401
			],
			"translation":[
				0.07575368136167526,
				1.040092945098877,
				-0.004328222945332527
			]
		},
		{
			"mesh":6,
			"name":"pTorus2",
			"rotation":[
				0.7071069478988647,
				0,
				0,
				0.7071066498756409
			],
			"scale":[
				0.07790698856115341,
				0.07790699601173401,
				0.07790699601173401
			],
			"translation":[
				-0.11053995788097382,
				1.040092945098877,
				-0.005132146645337343
			]
		},
		{
			"mesh":7,
			"name":"lowRes1",
			"rotation":[
				0.5232698917388916,
				-0.4755929708480835,
				0.47559303045272827,
				0.5232698917388916
			],
			"scale":[
				0.021317649632692337,
				0.021317649632692337,
				0.021317647770047188
			],
			"translation":[
				0.5070261359214783,
				1.2241543531417847,
				0
			]
		},
		{
			"mesh":8,
			"name":"sweep1",
			"rotation":[
				0.70710688829422,
				0,
				0,
				0.7071066498756409
			],
			"scale":[
				0.009999999776482582,
				0.010000000707805157,
				0.010000000707805157
			],
			"translation":[
				0,
				1.0333677530288696,
				0
			]
		}
	],
	"materials":[
		{
			"alphaMode":"BLEND",
			"doubleSided":true,
			"extensions":{
				"KHR_materials_specular":{
					"specularColorFactor":[
						2.0,
						2.0,
						2.0
					]
				},
				"KHR_materials_ior":{
					"ior":2.1999988555908203
				}
			},
			"name":"lab_beaker_a",
			"pbrMetallicRoughness":{
				"baseColorFactor":[
					1,
					1,
					1,
					0.22658611834049225
				],
				"baseColorTexture":{
					"index":0
				},
				"metallicFactor":0.16918429732322693,
				"roughnessFactor":0.04984894394874573
			}
		},
		{
			"doubleSided":true,
			"extensions":{
				"KHR_materials_specular":{
					"specularColorFactor":[
						2.0,
						2.0,
						2.0
					]
				}
			},
			"name":"standardSurface1",
			"pbrMetallicRoughness":{
				"baseColorTexture":{
					"index":1
				},
				"metallicFactor":0.1993957757949829,
				"roughnessFactor":0.5527864098548889
			}
		},
		{
			"doubleSided":true,
			"extensions":{
				"KHR_materials_specular":{
					"specularColorFactor":[
						2.0,
						2.0,
						2.0
					]
				}
			},
			"name":"lambert2",
			"pbrMetallicRoughness":{
				"baseColorFactor":[
					0.5,
					0.3464275896549225,
					0.15200001001358032,
					1
				],
				"roughnessFactor":0.5527864098548889
			}
		},
		{
			"doubleSided":true,
			"extensions":{
				"KHR_materials_specular":{
					"specularColorFactor":[
						2,
						2,
						2
					],
					"specularColorTexture":{
						"index":2
					}
				}
			},
			"name":"standardSurface2",
			"normalTexture":{
				"index":3
			},
			"pbrMetallicRoughness":{
				"baseColorTexture":{
					"index":4
				},
				"metallicRoughnessTexture":{
					"index":5
				},
				"roughnessFactor":0.353390634059906
			}
		}
	],
	"meshes":[
		{
			"name":"Mesh_0",
			"primitives":[
				{
					"attributes":{
						"POSITION":0,
						"NORMAL":1,
						"TEXCOORD_0":2
					},
					"indices":3
				}
			]
		},
		{
			"name":"Mesh.006",
			"primitives":[
				{
					"attributes":{
						"POSITION":4,
						"NORMAL":5,
						"TEXCOORD_0":6
					},
					"indices":7,
					"material":0
				}
			]
		},
		{
			"name":"Mesh.007",
			"primitives":[
				{
					"attributes":{
						"POSITION":8,
						"NORMAL":9,
						"TEXCOORD_0":10
					},
					"indices":7,
					"material":0
				}
			]
		},
		{
			"name":"Mesh.008",
			"primitives":[
				{
					"attributes":{
						"POSITION":11,
						"NORMAL":12,
						"TEXCOORD_0":13
					},
					"indices":14,
					"material":1
				}
			]
		},
		{
			"name":"Mesh.009",
			"primitives":[
				{
					"attributes":{
						"POSITION":15,
						"NORMAL":16,
						"TEXCOORD_0":17
					},
					"indices":14,
					"material":1
				}
			]
		},
		{
			"name":"Mesh.010",
			"primitives":[
				{
					"attributes":{
						"POSITION":18,
						"NORMAL":19,
						"TEXCOORD_0":20
					},
					"indices":21,
					"material":2
				}
			]
		},
		{
			"name":"Mesh.011",
			"primitives":[
				{
					"attributes":{
						"POSITION":22,
						"NORMAL":23,
						"TEXCOORD_0":24
					},
					"indices":25,
					"material":2
				}
			]
		},
		{
			"name":"Mesh.012",
			"primitives":[
				{
					"attributes":{
						"POSITION":26,
						"NORMAL":27,
						"TEXCOORD_0":28
					},
					"indices":29,
					"material":3
				}
			]
		},
		{
			"name":"Mesh.013",
			"primitives":[
				{
					"attributes":{
						"POSITION":30,
						"NORMAL":31,
						"TEXCOORD_0":32
					},
					"indices":33,
					"material":3
				}
			]
		}
	],
	"textures":[
		{
			"sampler":0,
			"source":0
		},
		{
			"sampler":0,
			"source":1
		},
		{
			"sampler":0,
			"source":2
		},
		{
			"sampler":0,
			"source":3
		},
		{
			"sampler":0,
			"source":4
		},
		{
			"sampler":0,
			"source":5
		}
	],
	"images":[
		{
			"mimeType":"image/png",
			"name":"lab_beaker_a",
			"uri":"lab_beaker_a.png"
		},
		{
			"mimeType":"image/png",
			"name":"1st_set_Hatthylla_ljus_penna_bok_matta_vas",
			"uri":"1st_set_Hatthylla_ljus_penna_bok_matta_vas.png"
		},
		{
			"mimeType":"image/png",
			"name":"Paint_Specular",
			"uri":"Paint_Specular.png"
		},
		{
			"mimeType":"image/png",
			"name":"paint can upload_Oxygen_Spray_Normal",
			"uri":"paint%20can%20upload_Oxygen_Spray_Normal.png"
		},
		{
			"mimeType":"image/png",
			"name":"paint can upload_Oxygen_Spray_AlbedoTransparency",
			"uri":"paint%20can%20upload_Oxygen_Spray_AlbedoTransparency.png"
		},
		{
			"mimeType":"image/png",
			"name":"paint can upload_Oxygen_Spray_MetallicSmoothness",
			"uri":"paint%20can%20upload_Oxygen_Spray_MetallicSmoothness.png"
		}
	],
	"accessors":[
		{
			"bufferView":0,
			"componentType":5126,
			"count":4,
			"max":[
				605.7238159179688,
				874.4064331054688,
				0
			],
			"min":[
				-605.7238159179688,
				-874.4064331054688,
				0
			],
			"type":"VEC3"
		},
		{
			"bufferView":1,
			"componentType":5126,
			"count":4,
			"type":"VEC3"
		},
		{
			"bufferView":2,
			"componentType":5126,
			"count":4,
			"type":"VEC2"
		},
		{
			"bufferView":3,
			"componentType":5123,
			"count":6,
			"type":"SCALAR"
		},
		{
			"bufferView":4,
			"componentType":5126,
			"count":498,
			"max":[
				5.767404079437256,
				12.603716850280762,
				5.258543968200684
			],
			"min":[
				-5.269400119781494,
				0,
				-5.258544445037842
			],
			"type":"VEC3"
		},
		{
			"bufferView":5,
			"componentType":5126,
			"count":498,
			"type":"VEC3"
		},
		{
			"bufferView":6,
			"componentType":5126,
			"count":498,
			"type":"VEC2"
		},
		{
			"bufferView":7,
			"componentType":5123,
			"count":2376,
			"type":"SCALAR"
		},
		{
			"bufferView":8,
			"componentType":5126,
			"count":498,
			"max":[
				5.767404079437256,
				12.603716850280762,
				5.258543968200684
			],
			"min":[
				-5.269400119781494,
				0,
				-5.258544445037842
			],
			"type":"VEC3"
		},
		{
			"bufferView":9,
			"componentType":5126,
			"count":498,
			"type":"VEC3"
		},
		{
			"bufferView":10,
			"componentType":5126,
			"count":498,
			"type":"VEC2"
		},
		{
			"bufferView":11,
			"componentType":5126,
			"count":249,
			"max":[
				26.597002029418945,
				-3.0858426094055176,
				-4.074610233306885
			],
			"min":[
				26.206777572631836,
				-3.4760663509368896,
				-4.496518135070801
			],
			"type":"VEC3"
		},
		{
			"bufferView":12,
			"componentType":5126,
			"count":249,
			"type":"VEC3"
		},
		{
			"bufferView":13,
			"componentType":5126,
			"count":249,
			"type":"VEC2"
		},
		{
			"bufferView":14,
			"componentType":5123,
			"count":801,
			"type":"SCALAR"
		},
		{
			"bufferView":15,
			"componentType":5126,
			"count":249,
			"max":[
				26.597002029418945,
				-3.0858426094055176,
				-4.074610233306885
			],
			"min":[
				26.206777572631836,
				-3.4760663509368896,
				-4.496518135070801
			],
			"type":"VEC3"
		},
		{
			"bufferView":16,
			"componentType":5126,
			"count":249,
			"type":"VEC3"
		},
		{
			"bufferView":17,
			"componentType":5126,
			"count":249,
			"type":"VEC2"
		},
		{
			"bufferView":18,
			"componentType":5126,
			"count":140,
			"max":[
				1.101180911064148,
				1.100000023841858,
				0.08660255372524261
			],
			"min":[
				-1.100000023841858,
				-1.0999997854232788,
				-0.17183677852153778
			],
			"type":"VEC3"
		},
		{
			"bufferView":19,
			"componentType":5126,
			"count":140,
			"type":"VEC3"
		},
		{
			"bufferView":20,
			"componentType":5126,
			"count":140,
			"type":"VEC2"
		},
		{
			"bufferView":21,
			"componentType":5123,
			"count":684,
			"type":"SCALAR"
		},
		{
			"bufferView":22,
			"componentType":5126,
			"count":119,
			"max":[
				1.100000023841858,
				1.100000023841858,
				0.08660255372524261
			],
			"min":[
				-1.100000023841858,
				-1.0999999046325684,
				-0.08660254627466202
			],
			"type":"VEC3"
		},
		{
			"bufferView":23,
			"componentType":5126,
			"count":119,
			"type":"VEC3"
		},
		{
			"bufferView":24,
			"componentType":5126,
			"count":119,
			"type":"VEC2"
		},
		{
			"bufferView":25,
			"componentType":5123,
			"count":576,
			"type":"SCALAR"
		},
		{
			"bufferView":26,
			"componentType":5126,
			"count":1302,
			"max":[
				3.094245433807373,
				3.046316146850586,
				8.72148609161377
			],
			"min":[
				-3.099752426147461,
				-3.1469955444335938,
				-11.389463424682617
			],
			"type":"VEC3"
		},
		{
			"bufferView":27,
			"componentType":5126,
			"count":1302,
			"type":"VEC3"
		},
		{
			"bufferView":28,
			"componentType":5126,
			"count":1302,
			"type":"VEC2"
		},
		{
			"bufferView":29,
			"componentType":5123,
			"count":5088,
			"type":"SCALAR"
		},
		{
			"bufferView":30,
			"componentType":5126,
			"count":324,
			"max":[
				48.67746353149414,
				1.288015365600586,
				0.017707832157611847
			],
			"min":[
				11.876704216003418,
				-0.09894821792840958,
				-42.854705810546875
			],
			"type":"VEC3"
		},
		{
			"bufferView":31,
			"componentType":5126,
			"count":324,
			"type":"VEC3"
		},
		{
			"bufferView":32,
			"componentType":5126,
			"count":324,
			"type":"VEC2"
		},
		{
			"bufferView":33,
			"componentType":5123,
			"count":1680,
			"type":"SCALAR"
		}
	],
	"bufferViews":[
		{
			"buffer":0,
			"byteLength":48,
			"byteOffset":0,
			"target":34962
		},
		{
			"buffer":0,
			"byteLength":48,
			"byteOffset":48,
			"target":34962
		},
		{
			"buffer":0,
			"byteLength":32,
			"byteOffset":96,
			"target":34962
		},
		{
			"buffer":0,
			"byteLength":12,
			"byteOffset":128,
			"target":34963
		},
		{
			"buffer":0,
			"byteLength":5976,
			"byteOffset":140,
			"target":34962
		},
		{
			"buffer":0,
			"byteLength":5976,
			"byteOffset":6116,
			"target":34962
		},
		{
			"buffer":0,
			"byteLength":3984,
			"byteOffset":12092,
			"target":34962
		},
		{
			"buffer":0,
			"byteLength":4752,
			"byteOffset":16076,
			"target":34963
		},
		{
			"buffer":0,
			"byteLength":5976,
			"byteOffset":20828,
			"target":34962
		},
		{
			"buffer":0,
			"byteLength":5976,
			"byteOffset":26804,
			"target":34962
		},
		{
			"buffer":0,
			"byteLength":3984,
			"byteOffset":32780,
			"target":34962
		},
		{
			"buffer":0,
			"byteLength":2988,
			"byteOffset":36764,
			"target":34962
		},
		{
			"buffer":0,
			"byteLength":2988,
			"byteOffset":39752,
			"target":34962
		},
		{
			"buffer":0,
			"byteLength":1992,
			"byteOffset":42740,
			"target":34962
		},
		{
			"buffer":0,
			"byteLength":1602,
			"byteOffset":44732,
			"target":34963
		},
		{
			"buffer":0,
			"byteLength":2988,
			"byteOffset":46336,
			"target":34962
		},
		{
			"buffer":0,
			"byteLength":2988,
			"byteOffset":49324,
			"target":34962
		},
		{
			"buffer":0,
			"byteLength":1992,
			"byteOffset":52312,
			"target":34962
		},
		{
			"buffer":0,
			"byteLength":1680,
			"byteOffset":54304,
			"target":34962
		},
		{
			"buffer":0,
			"byteLength":1680,
			"byteOffset":55984,
			"target":34962
		},
		{
			"buffer":0,
			"byteLength":1120,
			"byteOffset":57664,
			"target":34962
		},
		{
			"buffer":0,
			"byteLength":1368,
			"byteOffset":58784,
			"target":34963
		},
		{
			"buffer":0,
			"byteLength":1428,
			"byteOffset":60152,
			"target":34962
		},
		{
			"buffer":0,
			"byteLength":1428,
			"byteOffset":61580,
			"target":34962
		},
		{
			"buffer":0,
			"byteLength":952,
			"byteOffset":63008,
			"target":34962
		},
		{
			"buffer":0,
			"byteLength":1152,
			"byteOffset":63960,
			"target":34963
		},
		{
			"buffer":0,
			"byteLength":15624,
			"byteOffset":65112,
			"target":34962
		},
		{
			"buffer":0,
			"byteLength":15624,
			"byteOffset":80736,
			"target":34962
		},
		{
			"buffer":0,
			"byteLength":10416,
			"byteOffset":96360,
			"target":34962
		},
		{
			"buffer":0,
			"byteLength":10176,
			"byteOffset":106776,
			"target":34963
		},
		{
			"buffer":0,
			"byteLength":3888,
			"byteOffset":116952,
			"target":34962
		},
		{
			"buffer":0,
			"byteLength":3888,
			"byteOffset":120840,
			"target":34962
		},
		{
			"buffer":0,
			"byteLength":2592,
			"byteOffset":124728,
			"target":34962
		},
		{
			"buffer":0,
			"byteLength":3360,
			"byteOffset":127320,
			"target":34963
		}
	],
	"samplers":[
		{
			"magFilter":9729,
			"minFilter":9987
		}
	],
	"buffers":[
		{
			"byteLength":130680,
			"uri":"Candle_experiment.bin"
		}
	]
}
