{
	"asset":{
		"generator":"Khronos glTF Blender I/O v4.4.55",
		"version":"2.0"
	},
	"extensionsUsed":[
		"KHR_materials_specular",
		"KHR_materials_ior"
	],
	"scene":0,
	"scenes":[
		{
			"name":"Scene",
			"nodes":[
				2
			]
		}
	],
	"nodes":[
		{
			"mesh":0,
			"name":"BathroomDoor_BathroomDoor1"
		},
		{
			"mesh":1,
			"name":"Walls10",
			"translation":[
				0,
				40.09714889526367,
				3.02724970424606e-06
			]
		},
		{
			"children":[
				0,
				1
			],
			"name":"New",
			"rotation":[
				0.7071068286895752,
				0,
				0,
				0.7071068286895752
			],
			"scale":[
				0.009999999776482582,
				0.009999999776482582,
				0.009999999776482582
			]
		}
	],
	"materials":[
		{
			"alphaMode":"BLEND",
			"doubleSided":true,
			"extensions":{
				"KHR_materials_specular":{
					"specularColorFactor":[
						1.3987915515899658,
						1.3987915515899658,
						1.3987915515899658
					],
					"specularColorTexture":{
						"index":0
					}
				},
				"KHR_materials_ior":{
					"ior":14.899999618530273
				}
			},
			"name":"lambert3",
			"normalTexture":{
				"index":1
			},
			"pbrMetallicRoughness":{
				"baseColorTexture":{
					"index":2
				},
				"metallicFactor":0,
				"roughnessFactor":0.5527864098548889
			}
		}
	],
	"meshes":[
		{
			"name":"Mesh.019",
			"primitives":[
				{
					"attributes":{
						"POSITION":0,
						"NORMAL":1,
						"TEXCOORD_0":2
					},
					"indices":3,
					"material":0
				}
			]
		},
		{
			"name":"Mesh.020",
			"primitives":[
				{
					"attributes":{
						"POSITION":4,
						"NORMAL":5,
						"TEXCOORD_0":6
					},
					"indices":7,
					"material":0
				}
			]
		}
	],
	"textures":[
		{
			"sampler":0,
			"source":0
		},
		{
			"sampler":0,
			"source":1
		},
		{
			"sampler":0,
			"source":2
		}
	],
	"images":[
		{
			"mimeType":"image/png",
			"name":"New_Room_CleanRoom_SpecularSmoothness",
			"uri":"New_Room_CleanRoom_SpecularSmoothness.png"
		},
		{
			"mimeType":"image/png",
			"name":"New_Room_CleanRoom_Normal",
			"uri":"New_Room_CleanRoom_Normal.png"
		},
		{
			"mimeType":"image/png",
			"name":"New_Room_CleanRoom_AlbedoTransparency",
			"uri":"New_Room_CleanRoom_AlbedoTransparency.png"
		}
	],
	"accessors":[
		{
			"bufferView":0,
			"componentType":5126,
			"count":138,
			"max":[
				383.88726806640625,
				6.1802978515625,
				-39.99993896484375
			],
			"min":[
				223.90235900878906,
				-54.65008544921875,
				-229.99996948242188
			],
			"type":"VEC3"
		},
		{
			"bufferView":1,
			"componentType":5126,
			"count":138,
			"type":"VEC3"
		},
		{
			"bufferView":2,
			"componentType":5126,
			"count":138,
			"type":"VEC2"
		},
		{
			"bufferView":3,
			"componentType":5123,
			"count":204,
			"type":"SCALAR"
		},
		{
			"bufferView":4,
			"componentType":5126,
			"count":45580,
			"max":[
				518.1470947265625,
				330.0001220703125,
				-19.999982833862305
			],
			"min":[
				-392.26171875,
				-449.99993896484375,
				-320.0000305175781
			],
			"type":"VEC3"
		},
		{
			"bufferView":5,
			"componentType":5126,
			"count":45580,
			"type":"VEC3"
		},
		{
			"bufferView":6,
			"componentType":5126,
			"count":45580,
			"type":"VEC2"
		},
		{
			"bufferView":7,
			"componentType":5123,
			"count":129843,
			"type":"SCALAR"
		}
	],
	"bufferViews":[
		{
			"buffer":0,
			"byteLength":1656,
			"byteOffset":0,
			"target":34962
		},
		{
			"buffer":0,
			"byteLength":1656,
			"byteOffset":1656,
			"target":34962
		},
		{
			"buffer":0,
			"byteLength":1104,
			"byteOffset":3312,
			"target":34962
		},
		{
			"buffer":0,
			"byteLength":408,
			"byteOffset":4416,
			"target":34963
		},
		{
			"buffer":0,
			"byteLength":546960,
			"byteOffset":4824,
			"target":34962
		},
		{
			"buffer":0,
			"byteLength":546960,
			"byteOffset":551784,
			"target":34962
		},
		{
			"buffer":0,
			"byteLength":364640,
			"byteOffset":1098744,
			"target":34962
		},
		{
			"buffer":0,
			"byteLength":259686,
			"byteOffset":1463384,
			"target":34963
		}
	],
	"samplers":[
		{
			"magFilter":9729,
			"minFilter":9987
		}
	],
	"buffers":[
		{
			"byteLength":1723072,
			"uri":"Streinergltf.bin"
		}
	]
}
