{
	"asset":{
		"generator":"Khronos glTF Blender I/O v4.4.55",
		"version":"2.0"
	},
	"extensionsUsed":[
		"KHR_materials_specular"
	],
	"scene":0,
	"scenes":[
		{
			"name":"Scene",
			"nodes":[
				0,
				1,
				2,
				3,
				4,
				5,
				6,
				7,
				8,
				9
			]
		}
	],
	"nodes":[
		{
			"mesh":0,
			"name":"Weed 5.009",
			"rotation":[
				0.0901232361793518,
				-0.7209617495536804,
				0.6727827787399292,
				0.13948222994804382
			],
			"scale":[
				0.4215778708457947,
				0.4215778112411499,
				0.4215777814388275
			],
			"translation":[
				1.0113111734390259,
				1.425990343093872,
				2.241001605987549
			]
		},
		{
			"mesh":1,
			"name":"Terrain.001",
			"rotation":[
				0.5318273305892944,
				0.4950430989265442,
				-0.5068663954734802,
				0.46387335658073425
			],
			"scale":[
				0.014055237174034119,
				0.014055237174034119,
				0.014055238105356693
			],
			"translation":[
				-4.169883728027344,
				1.7584960460662842,
				-5.678608417510986
			]
		},
		{
			"mesh":2,
			"name":"Dry Grass!0.001",
			"rotation":[
				0.4583444595336914,
				-0.5637626647949219,
				0.49675223231315613,
				0.4746885597705841
			],
			"scale":[
				0.0989450067281723,
				0.0989450141787529,
				0.09894504398107529
			],
			"translation":[
				1.0211670398712158,
				1.5041351318359375,
				-0.2649616599082947
			]
		},
		{
			"mesh":3,
			"name":"Dry Grass 7.002",
			"rotation":[
				0.5767505764961243,
				-0.441890150308609,
				0.37291622161865234,
				0.5770834684371948
			],
			"scale":[
				0.09668318182229996,
				0.09668320417404175,
				0.09668321907520294
			],
			"translation":[
				-0.9459500908851624,
				1.585701584815979,
				1.0950034856796265
			]
		},
		{
			"mesh":4,
			"name":"Dry Grass 4.003",
			"rotation":[
				0.40103450417518616,
				-0.6058706641197205,
				0.540779173374176,
				0.42385128140449524
			],
			"scale":[
				0.1174887865781784,
				0.117488794028759,
				0.11748876422643661
			],
			"translation":[
				0.17545102536678314,
				1.4532744884490967,
				-1.4156098365783691
			]
		},
		{
			"mesh":5,
			"name":"Dry Grass 4.002",
			"rotation":[
				0.40103453397750854,
				-0.6058706641197205,
				0.5407791137695312,
				0.42385134100914
			],
			"scale":[
				0.11748876422643661,
				0.11748877167701721,
				0.11748877167701721
			],
			"translation":[
				-1.6030102968215942,
				1.5693923234939575,
				2.3258650302886963
			]
		},
		{
			"mesh":6,
			"name":"Dissolve:T_Rex_Skeleton_phong4",
			"rotation":[
				0.4935878813266754,
				-0.5331783294677734,
				0.4652568995952606,
				0.5055966973304749
			],
			"scale":[
				0.6247623562812805,
				0.6247623562812805,
				0.6247624158859253
			],
			"translation":[
				0.8940972685813904,
				1.3039878606796265,
				0.3216606676578522
			]
		},
		{
			"mesh":7,
			"name":"Dissolve:Object_6_phong1",
			"rotation":[
				0.4935878813266754,
				-0.5331783294677734,
				0.4652568995952606,
				0.5055966973304749
			],
			"scale":[
				0.6247623562812805,
				0.6247623562812805,
				0.6247624158859253
			],
			"translation":[
				0.8940972685813904,
				1.3039878606796265,
				0.3216606676578522
			]
		},
		{
			"mesh":8,
			"name":"Bamboo 4.001",
			"rotation":[
				0.26617932319641113,
				-0.6760597229003906,
				0.6171407103538513,
				0.30204179883003235
			],
			"scale":[
				0.198080375790596,
				0.1980804055929184,
				0.198080375790596
			],
			"translation":[
				0.2574302554130554,
				1.501633882522583,
				-0.18459956347942352
			]
		},
		{
			"mesh":9,
			"name":"Bamboo 3.001",
			"rotation":[
				0.2661794126033783,
				-0.6760596036911011,
				0.6171408295631409,
				0.3020417094230652
			],
			"scale":[
				0.2584742605686188,
				0.25847429037094116,
				0.2584742307662964
			],
			"translation":[
				2.46529221534729,
				1.133509635925293,
				1.2385879755020142
			]
		}
	],
	"materials":[
		{
			"alphaMode":"BLEND",
			"doubleSided":true,
			"extensions":{
				"KHR_materials_specular":{
					"specularColorFactor":[
						2.0,
						2.0,
						2.0
					]
				}
			},
			"name":"Weed 4_Grasses.002",
			"pbrMetallicRoughness":{
				"baseColorTexture":{
					"index":0
				},
				"metallicFactor":0,
				"roughnessFactor":0.8669857978820801
			}
		},
		{
			"doubleSided":true,
			"extensions":{
				"KHR_materials_specular":{
					"specularColorTexture":{
						"index":1
					}
				}
			},
			"name":"Terrain_Terrain.002",
			"normalTexture":{
				"index":2
			},
			"pbrMetallicRoughness":{
				"baseColorTexture":{
					"index":3
				},
				"metallicFactor":0,
				"roughnessFactor":0.9153242111206055
			}
		},
		{
			"alphaMode":"BLEND",
			"doubleSided":true,
			"extensions":{
				"KHR_materials_specular":{
					"specularColorFactor":[
						2.0,
						2.0,
						2.0
					]
				}
			},
			"name":"Dry Grass 3_Grasses.002",
			"pbrMetallicRoughness":{
				"baseColorTexture":{
					"index":4
				},
				"metallicFactor":0,
				"roughnessFactor":0.4349616467952728
			}
		},
		{
			"doubleSided":true,
			"extensions":{
				"KHR_materials_specular":{
					"specularTexture":{
						"index":5
					}
				}
			},
			"name":"Dissolve:phong5",
			"normalTexture":{
				"index":6
			},
			"pbrMetallicRoughness":{
				"baseColorTexture":{
					"index":7
				},
				"metallicFactor":0,
				"roughnessFactor":0.444108784198761
			}
		},
		{
			"doubleSided":true,
			"extensions":{
				"KHR_materials_specular":{
					"specularTexture":{
						"index":8
					}
				}
			},
			"name":"Dissolve:phong2",
			"normalTexture":{
				"index":9
			},
			"pbrMetallicRoughness":{
				"baseColorTexture":{
					"index":10
				},
				"metallicFactor":0,
				"roughnessFactor":0.4808621406555176
			}
		},
		{
			"alphaMode":"BLEND",
			"doubleSided":true,
			"extensions":{
				"KHR_materials_specular":{
					"specularColorFactor":[
						2.0,
						2.0,
						2.0
					]
				}
			},
			"name":"Bamboo 1_Grasses.002",
			"pbrMetallicRoughness":{
				"baseColorTexture":{
					"index":11
				},
				"metallicFactor":0,
				"roughnessFactor":0.5527864098548889
			}
		}
	],
	"meshes":[
		{
			"name":"Mesh.135",
			"primitives":[
				{
					"attributes":{
						"POSITION":0,
						"NORMAL":1,
						"TEXCOORD_0":2
					},
					"indices":3,
					"material":0
				}
			]
		},
		{
			"name":"Mesh.130",
			"primitives":[
				{
					"attributes":{
						"POSITION":4,
						"NORMAL":5,
						"TEXCOORD_0":6
					},
					"indices":7,
					"material":1
				}
			]
		},
		{
			"name":"Mesh.132",
			"primitives":[
				{
					"attributes":{
						"POSITION":8,
						"NORMAL":9,
						"TEXCOORD_0":10
					},
					"indices":11,
					"material":2
				}
			]
		},
		{
			"name":"Mesh.131",
			"primitives":[
				{
					"attributes":{
						"POSITION":12,
						"NORMAL":13,
						"TEXCOORD_0":14
					},
					"indices":15,
					"material":2
				}
			]
		},
		{
			"name":"Mesh.138",
			"primitives":[
				{
					"attributes":{
						"POSITION":16,
						"NORMAL":17,
						"TEXCOORD_0":18
					},
					"indices":19,
					"material":2
				}
			]
		},
		{
			"name":"Mesh.133",
			"primitives":[
				{
					"attributes":{
						"POSITION":20,
						"NORMAL":21,
						"TEXCOORD_0":22
					},
					"indices":23,
					"material":2
				}
			]
		},
		{
			"name":"Mesh.143",
			"primitives":[
				{
					"attributes":{
						"POSITION":24,
						"NORMAL":25,
						"TEXCOORD_0":26
					},
					"indices":27,
					"material":3
				}
			]
		},
		{
			"name":"Mesh.139",
			"primitives":[
				{
					"attributes":{
						"POSITION":28,
						"NORMAL":29,
						"TEXCOORD_0":30
					},
					"indices":31,
					"material":4
				}
			]
		},
		{
			"name":"Mesh.136",
			"primitives":[
				{
					"attributes":{
						"POSITION":32,
						"NORMAL":33,
						"TEXCOORD_0":34
					},
					"indices":35,
					"material":5
				}
			]
		},
		{
			"name":"Mesh.137",
			"primitives":[
				{
					"attributes":{
						"POSITION":36,
						"NORMAL":37,
						"TEXCOORD_0":38
					},
					"indices":39,
					"material":5
				}
			]
		}
	],
	"textures":[
		{
			"sampler":0,
			"source":0
		},
		{
			"sampler":0,
			"source":1
		},
		{
			"sampler":0,
			"source":2
		},
		{
			"sampler":0,
			"source":3
		},
		{
			"sampler":0,
			"source":4
		},
		{
			"sampler":0,
			"source":5
		},
		{
			"sampler":0,
			"source":6
		},
		{
			"sampler":0,
			"source":7
		},
		{
			"sampler":0,
			"source":8
		},
		{
			"sampler":0,
			"source":9
		},
		{
			"sampler":0,
			"source":10
		},
		{
			"sampler":0,
			"source":0
		}
	],
	"images":[
		{
			"mimeType":"image/png",
			"name":"Grasses",
			"uri":"Grasses.png"
		},
		{
			"mimeType":"image/png",
			"name":"Dissolve_Ground_1_SpecularSmoothness",
			"uri":"Dissolve_Ground_1_SpecularSmoothness.png"
		},
		{
			"mimeType":"image/png",
			"name":"Dissolve_Ground_1_Normal",
			"uri":"Dissolve_Ground_1_Normal.png"
		},
		{
			"mimeType":"image/png",
			"name":"Dissolve_Ground_1_AlbedoTransparency",
			"uri":"Dissolve_Ground_1_AlbedoTransparency.png"
		},
		{
			"mimeType":"image/png",
			"name":"Dry Grass 3_GrassesGrasses",
			"uri":"Dry%20Grass%203_GrassesGrasses.png"
		},
		{
			"mimeType":"image/png",
			"name":"Dissolve_Skeleton_SpecularSmoothness",
			"uri":"Dissolve_Skeleton_SpecularSmoothness.png"
		},
		{
			"mimeType":"image/png",
			"name":"Dissolve_Skeleton_Normal",
			"uri":"Dissolve_Skeleton_Normal.png"
		},
		{
			"mimeType":"image/png",
			"name":"Dissolve_Skeleton_AlbedoTransparency",
			"uri":"Dissolve_Skeleton_AlbedoTransparency.png"
		},
		{
			"mimeType":"image/png",
			"name":"Dissolve_Dissolving_T-Rex_SpecularSmoothness",
			"uri":"Dissolve_Dissolving_T-Rex_SpecularSmoothness.png"
		},
		{
			"mimeType":"image/png",
			"name":"Dissolve_Dissolving_T-Rex_Normal",
			"uri":"Dissolve_Dissolving_T-Rex_Normal.png"
		},
		{
			"mimeType":"image/png",
			"name":"Dissolve_Dissolving_T-Rex_AlbedoTransparency",
			"uri":"Dissolve_Dissolving_T-Rex_AlbedoTransparency.png"
		}
	],
	"accessors":[
		{
			"bufferView":0,
			"componentType":5126,
			"count":91,
			"max":[
				0.9363822937011719,
				0.8707733154296875,
				0.2997756004333496
			],
			"min":[
				-1.0195341110229492,
				-1.0418978929519653,
				-1.3364977836608887
			],
			"type":"VEC3"
		},
		{
			"bufferView":1,
			"componentType":5126,
			"count":91,
			"type":"VEC3"
		},
		{
			"bufferView":2,
			"componentType":5126,
			"count":91,
			"type":"VEC2"
		},
		{
			"bufferView":3,
			"componentType":5123,
			"count":147,
			"type":"SCALAR"
		},
		{
			"bufferView":4,
			"componentType":5126,
			"count":49,
			"max":[
				-179.585693359375,
				566.3856811523438,
				-40.16315841674805
			],
			"min":[
				-676.9000244140625,
				110.51429748535156,
				-83.68814086914062
			],
			"type":"VEC3"
		},
		{
			"bufferView":5,
			"componentType":5126,
			"count":49,
			"type":"VEC3"
		},
		{
			"bufferView":6,
			"componentType":5126,
			"count":49,
			"type":"VEC2"
		},
		{
			"bufferView":7,
			"componentType":5123,
			"count":192,
			"type":"SCALAR"
		},
		{
			"bufferView":8,
			"componentType":5126,
			"count":57,
			"max":[
				3.7979354858398438,
				0.2815704345703125,
				0.2225189208984375
			],
			"min":[
				-4.773059844970703,
				-3.3223648071289062,
				-6.408536911010742
			],
			"type":"VEC3"
		},
		{
			"bufferView":9,
			"componentType":5126,
			"count":57,
			"type":"VEC3"
		},
		{
			"bufferView":10,
			"componentType":5126,
			"count":57,
			"type":"VEC2"
		},
		{
			"bufferView":11,
			"componentType":5123,
			"count":57,
			"type":"SCALAR"
		},
		{
			"bufferView":12,
			"componentType":5126,
			"count":57,
			"max":[
				3.797931671142578,
				0.2815742492675781,
				0.22251510620117188
			],
			"min":[
				-4.773059844970703,
				-3.3223724365234375,
				-6.408538818359375
			],
			"type":"VEC3"
		},
		{
			"bufferView":13,
			"componentType":5126,
			"count":57,
			"type":"VEC3"
		},
		{
			"bufferView":14,
			"componentType":5126,
			"count":57,
			"type":"VEC2"
		},
		{
			"bufferView":15,
			"componentType":5123,
			"count":57,
			"type":"SCALAR"
		},
		{
			"bufferView":16,
			"componentType":5126,
			"count":57,
			"max":[
				3.7979354858398438,
				0.28157615661621094,
				0.22251510620117188
			],
			"min":[
				-4.773059844970703,
				-3.322366714477539,
				-6.408542633056641
			],
			"type":"VEC3"
		},
		{
			"bufferView":17,
			"componentType":5126,
			"count":57,
			"type":"VEC3"
		},
		{
			"bufferView":18,
			"componentType":5126,
			"count":57,
			"type":"VEC2"
		},
		{
			"bufferView":19,
			"componentType":5123,
			"count":57,
			"type":"SCALAR"
		},
		{
			"bufferView":20,
			"componentType":5126,
			"count":57,
			"max":[
				3.797933578491211,
				0.28157520294189453,
				0.2225189208984375
			],
			"min":[
				-4.773059844970703,
				-3.322366714477539,
				-6.408536911010742
			],
			"type":"VEC3"
		},
		{
			"bufferView":21,
			"componentType":5126,
			"count":57,
			"type":"VEC3"
		},
		{
			"bufferView":22,
			"componentType":5126,
			"count":57,
			"type":"VEC2"
		},
		{
			"bufferView":23,
			"componentType":5123,
			"count":57,
			"type":"SCALAR"
		},
		{
			"bufferView":24,
			"componentType":5126,
			"count":120163,
			"max":[
				4.263065814971924,
				3.2121269702911377,
				-0.21533800661563873
			],
			"min":[
				-2.927489995956421,
				-2.0756030082702637,
				-1.6002130508422852
			],
			"type":"VEC3"
		},
		{
			"bufferView":25,
			"componentType":5126,
			"count":120163,
			"type":"VEC3"
		},
		{
			"bufferView":26,
			"componentType":5126,
			"count":120163,
			"type":"VEC2"
		},
		{
			"bufferView":27,
			"componentType":5125,
			"count":414018,
			"type":"SCALAR"
		},
		{
			"bufferView":28,
			"componentType":5126,
			"count":20932,
			"max":[
				4.312334060668945,
				3.243701934814453,
				6.607367992401123
			],
			"min":[
				-2.8699910640716553,
				-1.945652961730957,
				-1.5801910161972046
			],
			"type":"VEC3"
		},
		{
			"bufferView":29,
			"componentType":5126,
			"count":20932,
			"type":"VEC3"
		},
		{
			"bufferView":30,
			"componentType":5126,
			"count":20932,
			"type":"VEC2"
		},
		{
			"bufferView":31,
			"componentType":5123,
			"count":117972,
			"type":"SCALAR"
		},
		{
			"bufferView":32,
			"componentType":5126,
			"count":31,
			"max":[
				1.1019816398620605,
				1.0142860412597656,
				-0.0093231201171875
			],
			"min":[
				-1.1349000930786133,
				-0.7415695190429688,
				-3.862764358520508
			],
			"type":"VEC3"
		},
		{
			"bufferView":33,
			"componentType":5126,
			"count":31,
			"type":"VEC3"
		},
		{
			"bufferView":34,
			"componentType":5126,
			"count":31,
			"type":"VEC2"
		},
		{
			"bufferView":35,
			"componentType":5123,
			"count":69,
			"type":"SCALAR"
		},
		{
			"bufferView":36,
			"componentType":5126,
			"count":31,
			"max":[
				1.1019821166992188,
				1.0142860412597656,
				-0.009325027465820312
			],
			"min":[
				-1.134899616241455,
				-0.7415714263916016,
				-3.8627662658691406
			],
			"type":"VEC3"
		},
		{
			"bufferView":37,
			"componentType":5126,
			"count":31,
			"type":"VEC3"
		},
		{
			"bufferView":38,
			"componentType":5126,
			"count":31,
			"type":"VEC2"
		},
		{
			"bufferView":39,
			"componentType":5123,
			"count":69,
			"type":"SCALAR"
		}
	],
	"bufferViews":[
		{
			"buffer":0,
			"byteLength":1092,
			"byteOffset":0,
			"target":34962
		},
		{
			"buffer":0,
			"byteLength":1092,
			"byteOffset":1092,
			"target":34962
		},
		{
			"buffer":0,
			"byteLength":728,
			"byteOffset":2184,
			"target":34962
		},
		{
			"buffer":0,
			"byteLength":294,
			"byteOffset":2912,
			"target":34963
		},
		{
			"buffer":0,
			"byteLength":588,
			"byteOffset":3208,
			"target":34962
		},
		{
			"buffer":0,
			"byteLength":588,
			"byteOffset":3796,
			"target":34962
		},
		{
			"buffer":0,
			"byteLength":392,
			"byteOffset":4384,
			"target":34962
		},
		{
			"buffer":0,
			"byteLength":384,
			"byteOffset":4776,
			"target":34963
		},
		{
			"buffer":0,
			"byteLength":684,
			"byteOffset":5160,
			"target":34962
		},
		{
			"buffer":0,
			"byteLength":684,
			"byteOffset":5844,
			"target":34962
		},
		{
			"buffer":0,
			"byteLength":456,
			"byteOffset":6528,
			"target":34962
		},
		{
			"buffer":0,
			"byteLength":114,
			"byteOffset":6984,
			"target":34963
		},
		{
			"buffer":0,
			"byteLength":684,
			"byteOffset":7100,
			"target":34962
		},
		{
			"buffer":0,
			"byteLength":684,
			"byteOffset":7784,
			"target":34962
		},
		{
			"buffer":0,
			"byteLength":456,
			"byteOffset":8468,
			"target":34962
		},
		{
			"buffer":0,
			"byteLength":114,
			"byteOffset":8924,
			"target":34963
		},
		{
			"buffer":0,
			"byteLength":684,
			"byteOffset":9040,
			"target":34962
		},
		{
			"buffer":0,
			"byteLength":684,
			"byteOffset":9724,
			"target":34962
		},
		{
			"buffer":0,
			"byteLength":456,
			"byteOffset":10408,
			"target":34962
		},
		{
			"buffer":0,
			"byteLength":114,
			"byteOffset":10864,
			"target":34963
		},
		{
			"buffer":0,
			"byteLength":684,
			"byteOffset":10980,
			"target":34962
		},
		{
			"buffer":0,
			"byteLength":684,
			"byteOffset":11664,
			"target":34962
		},
		{
			"buffer":0,
			"byteLength":456,
			"byteOffset":12348,
			"target":34962
		},
		{
			"buffer":0,
			"byteLength":114,
			"byteOffset":12804,
			"target":34963
		},
		{
			"buffer":0,
			"byteLength":1441956,
			"byteOffset":12920,
			"target":34962
		},
		{
			"buffer":0,
			"byteLength":1441956,
			"byteOffset":1454876,
			"target":34962
		},
		{
			"buffer":0,
			"byteLength":961304,
			"byteOffset":2896832,
			"target":34962
		},
		{
			"buffer":0,
			"byteLength":1656072,
			"byteOffset":3858136,
			"target":34963
		},
		{
			"buffer":0,
			"byteLength":251184,
			"byteOffset":5514208,
			"target":34962
		},
		{
			"buffer":0,
			"byteLength":251184,
			"byteOffset":5765392,
			"target":34962
		},
		{
			"buffer":0,
			"byteLength":167456,
			"byteOffset":6016576,
			"target":34962
		},
		{
			"buffer":0,
			"byteLength":235944,
			"byteOffset":6184032,
			"target":34963
		},
		{
			"buffer":0,
			"byteLength":372,
			"byteOffset":6419976,
			"target":34962
		},
		{
			"buffer":0,
			"byteLength":372,
			"byteOffset":6420348,
			"target":34962
		},
		{
			"buffer":0,
			"byteLength":248,
			"byteOffset":6420720,
			"target":34962
		},
		{
			"buffer":0,
			"byteLength":138,
			"byteOffset":6420968,
			"target":34963
		},
		{
			"buffer":0,
			"byteLength":372,
			"byteOffset":6421108,
			"target":34962
		},
		{
			"buffer":0,
			"byteLength":372,
			"byteOffset":6421480,
			"target":34962
		},
		{
			"buffer":0,
			"byteLength":248,
			"byteOffset":6421852,
			"target":34962
		},
		{
			"buffer":0,
			"byteLength":138,
			"byteOffset":6422100,
			"target":34963
		}
	],
	"samplers":[
		{
			"magFilter":9729,
			"minFilter":9987
		}
	],
	"buffers":[
		{
			"byteLength":6422240,
			"uri":"Dino_Death_Scene2.bin"
		}
	]
}
