{
	"asset":{
		"generator":"Khronos glTF Blender I/O v4.4.55",
		"version":"2.0"
	},
	"extensionsUsed":[
		"KHR_materials_specular"
	],
	"scene":0,
	"scenes":[
		{
			"name":"Scene",
			"nodes":[
				0,
				1,
				2,
				6,
				7
			]
		}
	],
	"nodes":[
		{
			"mesh":0,
			"name":"Beaker_a",
			"scale":[
				0.014557108283042908,
				0.014557108283042908,
				0.014557108283042908
			],
			"translation":[
				-0.13505049049854279,
				0,
				-0.025954173877835274
			]
		},
		{
			"mesh":1,
			"name":"Dish",
			"rotation":[
				0.7071068286895752,
				0,
				0,
				0.7071068286895752
			],
			"scale":[
				0.0044212061911821365,
				0.0044212061911821365,
				0.0044212061911821365
			],
			"translation":[
				0.011202070862054825,
				0.00578418979421258,
				0
			]
		},
		{
			"mesh":2,
			"name":"Sugarbowl",
			"scale":[
				0.06489499658346176,
				0.06489501148462296,
				0.06489501148462296
			],
			"translation":[
				0.1304292231798172,
				0,
				0.013776302337646484
			]
		},
		{
			"mesh":3,
			"name":"Cherry_tomato",
			"rotation":[
				0.25145694613456726,
				0,
				0,
				0.9678685069084167
			],
			"translation":[
				10.146430015563965,
				-2.788435697555542,
				2.1442816257476807
			]
		},
		{
			"mesh":4,
			"name":"Cherry_tomato1",
			"rotation":[
				-0.10956120491027832,
				-0.019322779029607773,
				0.5178082585334778,
				0.8482320308685303
			],
			"translation":[
				6.810332775115967,
				-1.9249541759490967,
				1.4534791707992554
			]
		},
		{
			"mesh":5,
			"name":"Cherry_tomato2",
			"rotation":[
				0.10198497772216797,
				0.03515593707561493,
				0.30746278166770935,
				0.9454256892204285
			],
			"scale":[
				1.0272201299667358,
				1.0272202491760254,
				1.0272201299667358
			],
			"translation":[
				10.014254570007324,
				-0.3239220678806305,
				2.0616157054901123
			]
		},
		{
			"children":[
				3,
				4,
				5
			],
			"name":"Cherry_tomatos",
			"rotation":[
				0.7071068286895752,
				0,
				0,
				0.7071068286895752
			],
			"scale":[
				0.009999999776482582,
				0.009999999776482582,
				0.009999999776482582
			],
			"translation":[
				-0.10800085961818695,
				0.0006183123332448304,
				0.01147435326129198
			]
		},
		{
			"mesh":6,
			"name":"spoon_005_mesh",
			"rotation":[
				0,
				0.7071068286895752,
				-0.7071068286895752,
				0
			],
			"scale":[
				0.009999999776482582,
				0.009999999776482582,
				0.009999999776482582
			],
			"translation":[
				0.22500644624233246,
				0,
				0.007360400166362524
			]
		}
	],
	"materials":[
		{
			"alphaMode":"BLEND",
			"doubleSided":true,
			"extensions":{
				"KHR_materials_specular":{
					"specularColorFactor":[
						2.0,
						2.0,
						2.0
					]
				}
			},
			"name":"lab_beaker_a",
			"pbrMetallicRoughness":{
				"baseColorTexture":{
					"index":0
				},
				"metallicFactor":0,
				"roughnessFactor":0.010574012994766235
			}
		},
		{
			"doubleSided":true,
			"extensions":{
				"KHR_materials_specular":{
					"specularColorFactor":[
						2.0,
						2.0,
						2.0
					]
				}
			},
			"name":"DIsh",
			"pbrMetallicRoughness":{
				"baseColorFactor":[
					1,
					0.5019999742507935,
					1,
					1
				],
				"metallicFactor":0,
				"roughnessFactor":0.10263534635305405
			}
		},
		{
			"doubleSided":true,
			"extensions":{
				"KHR_materials_specular":{
					"specularColorFactor":[
						2.0,
						2.0,
						2.0
					]
				}
			},
			"name":"Sugarbowl:initialShadingGroup1",
			"normalTexture":{
				"index":1
			},
			"pbrMetallicRoughness":{
				"baseColorTexture":{
					"index":2
				},
				"metallicFactor":0,
				"metallicRoughnessTexture":{
					"index":3
				}
			}
		},
		{
			"doubleSided":true,
			"extensions":{
				"KHR_materials_specular":{
					"specularColorFactor":[
						2.0,
						2.0,
						2.0
					]
				}
			},
			"name":"DefaultMaterial",
			"pbrMetallicRoughness":{
				"baseColorTexture":{
					"index":4
				},
				"metallicFactor":0,
				"roughnessFactor":0.3338368535041809
			}
		},
		{
			"doubleSided":true,
			"extensions":{
				"KHR_materials_specular":{
					"specularColorFactor":[
						2.0,
						2.0,
						2.0
					]
				}
			},
			"name":"spoon_set_005",
			"pbrMetallicRoughness":{
				"roughnessFactor":0
			}
		}
	],
	"meshes":[
		{
			"name":"Mesh",
			"primitives":[
				{
					"attributes":{
						"POSITION":0,
						"NORMAL":1,
						"TEXCOORD_0":2
					},
					"indices":3,
					"material":0
				}
			]
		},
		{
			"name":"Mesh.001",
			"primitives":[
				{
					"attributes":{
						"POSITION":4,
						"NORMAL":5,
						"TEXCOORD_0":6
					},
					"indices":7,
					"material":1
				}
			]
		},
		{
			"name":"Mesh.002",
			"primitives":[
				{
					"attributes":{
						"POSITION":8,
						"NORMAL":9,
						"TEXCOORD_0":10
					},
					"indices":11,
					"material":2
				}
			]
		},
		{
			"name":"Mesh.003",
			"primitives":[
				{
					"attributes":{
						"POSITION":12,
						"NORMAL":13,
						"TEXCOORD_0":14
					},
					"indices":15,
					"material":3
				}
			]
		},
		{
			"name":"Mesh.004",
			"primitives":[
				{
					"attributes":{
						"POSITION":16,
						"NORMAL":17,
						"TEXCOORD_0":18
					},
					"indices":15,
					"material":3
				}
			]
		},
		{
			"name":"Mesh.005",
			"primitives":[
				{
					"attributes":{
						"POSITION":19,
						"NORMAL":20,
						"TEXCOORD_0":21
					},
					"indices":15,
					"material":3
				}
			]
		},
		{
			"name":"Mesh.006",
			"primitives":[
				{
					"attributes":{
						"POSITION":22,
						"NORMAL":23,
						"TEXCOORD_0":24
					},
					"indices":25,
					"material":4
				}
			]
		}
	],
	"textures":[
		{
			"sampler":0,
			"source":0
		},
		{
			"sampler":0,
			"source":1
		},
		{
			"sampler":0,
			"source":2
		},
		{
			"sampler":0,
			"source":3
		},
		{
			"sampler":0,
			"source":4
		}
	],
	"images":[
		{
			"mimeType":"image/png",
			"name":"beaker_lab_beaker_a_AlbedoTransparency",
			"uri":"beaker_lab_beaker_a_AlbedoTransparency.png"
		},
		{
			"mimeType":"image/png",
			"name":"Sugar_bowl_Sugarbowl_Normal",
			"uri":"Sugar_bowl_Sugarbowl_Normal.png"
		},
		{
			"mimeType":"image/png",
			"name":"Sugar_bowl_Sugarbowl_AlbedoTransparency",
			"uri":"Sugar_bowl_Sugarbowl_AlbedoTransparency.png"
		},
		{
			"mimeType":"image/png",
			"name":"Sugar_bowl_Sugarbowl_MetallicSmoothness",
			"uri":"Sugar_bowl_Sugarbowl_MetallicSmoothness.png"
		},
		{
			"mimeType":"image/jpeg",
			"name":"DefaultMaterial_baseColor",
			"uri":"DefaultMaterial_baseColor.jpg"
		}
	],
	"accessors":[
		{
			"bufferView":0,
			"componentType":5126,
			"count":498,
			"max":[
				5.767404079437256,
				12.603716850280762,
				5.258543968200684
			],
			"min":[
				-5.269400119781494,
				0,
				-5.258544445037842
			],
			"type":"VEC3"
		},
		{
			"bufferView":1,
			"componentType":5126,
			"count":498,
			"type":"VEC3"
		},
		{
			"bufferView":2,
			"componentType":5126,
			"count":498,
			"type":"VEC2"
		},
		{
			"bufferView":3,
			"componentType":5123,
			"count":2376,
			"type":"SCALAR"
		},
		{
			"bufferView":4,
			"componentType":5126,
			"count":304,
			"max":[
				11.072944641113281,
				11.072945594787598,
				1
			],
			"min":[
				-11.07294750213623,
				-11.07295036315918,
				-1
			],
			"type":"VEC3"
		},
		{
			"bufferView":5,
			"componentType":5126,
			"count":304,
			"type":"VEC3"
		},
		{
			"bufferView":6,
			"componentType":5126,
			"count":304,
			"type":"VEC2"
		},
		{
			"bufferView":7,
			"componentType":5123,
			"count":1680,
			"type":"SCALAR"
		},
		{
			"bufferView":8,
			"componentType":5126,
			"count":1091,
			"max":[
				0.8083099722862244,
				1.1260770559310913,
				0.8083099722862244
			],
			"min":[
				-0.8083099722862244,
				-0.012223999947309494,
				-0.8083099722862244
			],
			"type":"VEC3"
		},
		{
			"bufferView":9,
			"componentType":5126,
			"count":1091,
			"type":"VEC3"
		},
		{
			"bufferView":10,
			"componentType":5126,
			"count":1091,
			"type":"VEC2"
		},
		{
			"bufferView":11,
			"componentType":5123,
			"count":5973,
			"type":"SCALAR"
		},
		{
			"bufferView":12,
			"componentType":5126,
			"count":765,
			"max":[
				4.5297956466674805,
				-0.16599416732788086,
				-1.971982717514038
			],
			"min":[
				1.3000366687774658,
				-3.3223185539245605,
				-5.062121868133545
			],
			"type":"VEC3"
		},
		{
			"bufferView":13,
			"componentType":5126,
			"count":765,
			"type":"VEC3"
		},
		{
			"bufferView":14,
			"componentType":5126,
			"count":765,
			"type":"VEC2"
		},
		{
			"bufferView":15,
			"componentType":5123,
			"count":3570,
			"type":"SCALAR"
		},
		{
			"bufferView":16,
			"componentType":5126,
			"count":765,
			"max":[
				4.5297956466674805,
				-0.23685170710086823,
				-1.9125463962554932
			],
			"min":[
				1.3000366687774658,
				-3.3223185539245605,
				-5.062121868133545
			],
			"type":"VEC3"
		},
		{
			"bufferView":17,
			"componentType":5126,
			"count":765,
			"type":"VEC3"
		},
		{
			"bufferView":18,
			"componentType":5126,
			"count":765,
			"type":"VEC2"
		},
		{
			"bufferView":19,
			"componentType":5126,
			"count":765,
			"max":[
				4.5297956466674805,
				-0.23685170710086823,
				-1.9125463962554932
			],
			"min":[
				1.3000366687774658,
				-3.3223185539245605,
				-5.062121868133545
			],
			"type":"VEC3"
		},
		{
			"bufferView":20,
			"componentType":5126,
			"count":765,
			"type":"VEC3"
		},
		{
			"bufferView":21,
			"componentType":5126,
			"count":765,
			"type":"VEC2"
		},
		{
			"bufferView":22,
			"componentType":5126,
			"count":1884,
			"max":[
				0.9309598207473755,
				3.779808282852173,
				-0.0728158950805664
			],
			"min":[
				-0.9309537410736084,
				-5.914973258972168,
				-1.024835228919983
			],
			"type":"VEC3"
		},
		{
			"bufferView":23,
			"componentType":5126,
			"count":1884,
			"type":"VEC3"
		},
		{
			"bufferView":24,
			"componentType":5126,
			"count":1884,
			"type":"VEC2"
		},
		{
			"bufferView":25,
			"componentType":5123,
			"count":10368,
			"type":"SCALAR"
		}
	],
	"bufferViews":[
		{
			"buffer":0,
			"byteLength":5976,
			"byteOffset":0,
			"target":34962
		},
		{
			"buffer":0,
			"byteLength":5976,
			"byteOffset":5976,
			"target":34962
		},
		{
			"buffer":0,
			"byteLength":3984,
			"byteOffset":11952,
			"target":34962
		},
		{
			"buffer":0,
			"byteLength":4752,
			"byteOffset":15936,
			"target":34963
		},
		{
			"buffer":0,
			"byteLength":3648,
			"byteOffset":20688,
			"target":34962
		},
		{
			"buffer":0,
			"byteLength":3648,
			"byteOffset":24336,
			"target":34962
		},
		{
			"buffer":0,
			"byteLength":2432,
			"byteOffset":27984,
			"target":34962
		},
		{
			"buffer":0,
			"byteLength":3360,
			"byteOffset":30416,
			"target":34963
		},
		{
			"buffer":0,
			"byteLength":13092,
			"byteOffset":33776,
			"target":34962
		},
		{
			"buffer":0,
			"byteLength":13092,
			"byteOffset":46868,
			"target":34962
		},
		{
			"buffer":0,
			"byteLength":8728,
			"byteOffset":59960,
			"target":34962
		},
		{
			"buffer":0,
			"byteLength":11946,
			"byteOffset":68688,
			"target":34963
		},
		{
			"buffer":0,
			"byteLength":9180,
			"byteOffset":80636,
			"target":34962
		},
		{
			"buffer":0,
			"byteLength":9180,
			"byteOffset":89816,
			"target":34962
		},
		{
			"buffer":0,
			"byteLength":6120,
			"byteOffset":98996,
			"target":34962
		},
		{
			"buffer":0,
			"byteLength":7140,
			"byteOffset":105116,
			"target":34963
		},
		{
			"buffer":0,
			"byteLength":9180,
			"byteOffset":112256,
			"target":34962
		},
		{
			"buffer":0,
			"byteLength":9180,
			"byteOffset":121436,
			"target":34962
		},
		{
			"buffer":0,
			"byteLength":6120,
			"byteOffset":130616,
			"target":34962
		},
		{
			"buffer":0,
			"byteLength":9180,
			"byteOffset":136736,
			"target":34962
		},
		{
			"buffer":0,
			"byteLength":9180,
			"byteOffset":145916,
			"target":34962
		},
		{
			"buffer":0,
			"byteLength":6120,
			"byteOffset":155096,
			"target":34962
		},
		{
			"buffer":0,
			"byteLength":22608,
			"byteOffset":161216,
			"target":34962
		},
		{
			"buffer":0,
			"byteLength":22608,
			"byteOffset":183824,
			"target":34962
		},
		{
			"buffer":0,
			"byteLength":15072,
			"byteOffset":206432,
			"target":34962
		},
		{
			"buffer":0,
			"byteLength":20736,
			"byteOffset":221504,
			"target":34963
		}
	],
	"samplers":[
		{
			"magFilter":9729,
			"minFilter":9987
		}
	],
	"buffers":[
		{
			"byteLength":242240,
			"uri":"Beaker_scne.bin"
		}
	]
}
