{
	"asset":{
		"generator":"Khronos glTF Blender I/O v4.4.55",
		"version":"2.0"
	},
	"extensionsUsed":[
		"KHR_materials_specular"
	],
	"scene":0,
	"scenes":[
		{
			"name":"Scene",
			"nodes":[
				0,
				4
			]
		}
	],
	"nodes":[
		{
			"mesh":0,
			"name":"Dissolve:T_Rex_Skeleton_phong4.002",
			"rotation":[
				0.5599587559700012,
				-0.4949663281440735,
				0.43179434537887573,
				0.5049835443496704
			],
			"scale":[
				0.6038698554039001,
				0.6038697957992554,
				0.6038699150085449
			],
			"translation":[
				0,
				1.492941975593567,
				0
			]
		},
		{
			"mesh":1,
			"name":"polySurface1.001",
			"rotation":[
				0,
				0,
				0.18033787608146667,
				0.9836047291755676
			]
		},
		{
			"mesh":2,
			"name":"polySurface2.001",
			"rotation":[
				0,
				0,
				0.18033787608146667,
				0.9836047291755676
			]
		},
		{
			"name":"transform1.001",
			"rotation":[
				-0.6955136060714722,
				-0.12751811742782593,
				0.12751813232898712,
				0.6955135464668274
			],
			"scale":[
				100,
				100.0000228881836,
				100.00000762939453
			]
		},
		{
			"children":[
				1,
				2,
				3
			],
			"name":"Dissolve:pPlane1_lambert2.001",
			"rotation":[
				0.5879341959953308,
				-0.3928530216217041,
				0.3928530514240265,
				0.5879340767860413
			],
			"scale":[
				0.6038697957992554,
				0.6038698554039001,
				0.6038697957992554
			],
			"translation":[
				0,
				1.6564605236053467,
				0
			]
		}
	],
	"materials":[
		{
			"doubleSided":true,
			"name":"Dissolve:phong5.002",
			"normalTexture":{
				"index":0
			},
			"pbrMetallicRoughness":{
				"baseColorTexture":{
					"index":1
				},
				"metallicFactor":0
			}
		},
		{
			"doubleSided":true,
			"extensions":{
				"KHR_materials_specular":{
					"specularColorTexture":{
						"index":2
					}
				}
			},
			"name":"Surface.002",
			"normalTexture":{
				"index":3
			},
			"pbrMetallicRoughness":{
				"baseColorTexture":{
					"index":4
				},
				"metallicFactor":0,
				"roughnessFactor":0.5075528621673584
			}
		},
		{
			"doubleSided":true,
			"extensions":{
				"KHR_materials_specular":{
					"specularColorTexture":{
						"index":5
					}
				}
			},
			"name":"Stratum.002",
			"normalTexture":{
				"index":6
			},
			"pbrMetallicRoughness":{
				"baseColorTexture":{
					"index":7
				},
				"metallicFactor":0
			}
		},
		{
			"doubleSided":true,
			"extensions":{
				"KHR_materials_specular":{
					"specularColorTexture":{
						"index":8
					}
				}
			},
			"name":"Dissolve:lambert3.002",
			"normalTexture":{
				"index":9
			},
			"pbrMetallicRoughness":{
				"baseColorTexture":{
					"index":10
				},
				"metallicFactor":0
			}
		}
	],
	"meshes":[
		{
			"name":"Mesh.154",
			"primitives":[
				{
					"attributes":{
						"POSITION":0,
						"NORMAL":1,
						"TEXCOORD_0":2
					},
					"indices":3,
					"material":0
				}
			]
		},
		{
			"name":"Mesh.150",
			"primitives":[
				{
					"attributes":{
						"POSITION":4,
						"NORMAL":5,
						"TEXCOORD_0":6
					},
					"indices":7,
					"material":1
				},
				{
					"attributes":{
						"POSITION":8,
						"NORMAL":9,
						"TEXCOORD_0":10
					},
					"indices":11,
					"material":2
				}
			]
		},
		{
			"name":"Mesh.153",
			"primitives":[
				{
					"attributes":{
						"POSITION":12,
						"NORMAL":13,
						"TEXCOORD_0":14
					},
					"indices":15,
					"material":3
				}
			]
		}
	],
	"textures":[
		{
			"sampler":0,
			"source":0
		},
		{
			"sampler":0,
			"source":1
		},
		{
			"sampler":0,
			"source":2
		},
		{
			"sampler":0,
			"source":3
		},
		{
			"sampler":0,
			"source":4
		},
		{
			"sampler":0,
			"source":5
		},
		{
			"sampler":0,
			"source":6
		},
		{
			"sampler":0,
			"source":7
		},
		{
			"sampler":0,
			"source":8
		},
		{
			"sampler":0,
			"source":9
		},
		{
			"sampler":0,
			"source":10
		}
	],
	"images":[
		{
			"mimeType":"image/png",
			"name":"dead3_Fossile_Normal",
			"uri":"dead3_Fossile_Normal.png"
		},
		{
			"mimeType":"image/png",
			"name":"dead3_Fossile_AlbedoTransparency",
			"uri":"dead3_Fossile_AlbedoTransparency.png"
		},
		{
			"mimeType":"image/png",
			"name":"dead3_Surface_SpecularSmoothness",
			"uri":"dead3_Surface_SpecularSmoothness.png"
		},
		{
			"mimeType":"image/png",
			"name":"dead3_Surface_Normal",
			"uri":"dead3_Surface_Normal.png"
		},
		{
			"mimeType":"image/png",
			"name":"dead3_Surface_AlbedoTransparency",
			"uri":"dead3_Surface_AlbedoTransparency.png"
		},
		{
			"mimeType":"image/png",
			"name":"dead3_Stratum_SpecularSmoothness",
			"uri":"dead3_Stratum_SpecularSmoothness.png"
		},
		{
			"mimeType":"image/png",
			"name":"dead3_Stratum_Normal",
			"uri":"dead3_Stratum_Normal.png"
		},
		{
			"mimeType":"image/png",
			"name":"dead3_Stratum_AlbedoTransparency",
			"uri":"dead3_Stratum_AlbedoTransparency.png"
		},
		{
			"mimeType":"image/png",
			"name":"dead3_Base_SpecularSmoothness",
			"uri":"dead3_Base_SpecularSmoothness.png"
		},
		{
			"mimeType":"image/png",
			"name":"dead3_Base_Normal",
			"uri":"dead3_Base_Normal.png"
		},
		{
			"mimeType":"image/png",
			"name":"dead3_Base_AlbedoTransparency",
			"uri":"dead3_Base_AlbedoTransparency.png"
		}
	],
	"accessors":[
		{
			"bufferView":0,
			"componentType":5126,
			"count":120163,
			"max":[
				4.263065814971924,
				3.2121269702911377,
				-0.21533800661563873
			],
			"min":[
				-2.927489995956421,
				-2.0756030082702637,
				-1.6002130508422852
			],
			"type":"VEC3"
		},
		{
			"bufferView":1,
			"componentType":5126,
			"count":120163,
			"type":"VEC3"
		},
		{
			"bufferView":2,
			"componentType":5126,
			"count":120163,
			"type":"VEC2"
		},
		{
			"bufferView":3,
			"componentType":5125,
			"count":414018,
			"type":"SCALAR"
		},
		{
			"bufferView":4,
			"componentType":5126,
			"count":55,
			"max":[
				5.7040910720825195,
				5.7040910720825195,
				-2.379025936126709
			],
			"min":[
				-5.7040910720825195,
				1.3061037063598633,
				-2.9367623329162598
			],
			"type":"VEC3"
		},
		{
			"bufferView":5,
			"componentType":5126,
			"count":55,
			"type":"VEC3"
		},
		{
			"bufferView":6,
			"componentType":5126,
			"count":55,
			"type":"VEC2"
		},
		{
			"bufferView":7,
			"componentType":5123,
			"count":240,
			"type":"SCALAR"
		},
		{
			"bufferView":8,
			"componentType":5126,
			"count":87,
			"max":[
				5.716402530670166,
				5.7040910720825195,
				0.5099985599517822
			],
			"min":[
				-5.713231086730957,
				-1.3154044151306152,
				-2.895782470703125
			],
			"type":"VEC3"
		},
		{
			"bufferView":9,
			"componentType":5126,
			"count":87,
			"type":"VEC3"
		},
		{
			"bufferView":10,
			"componentType":5126,
			"count":87,
			"type":"VEC2"
		},
		{
			"bufferView":11,
			"componentType":5123,
			"count":336,
			"type":"SCALAR"
		},
		{
			"bufferView":12,
			"componentType":5126,
			"count":121,
			"max":[
				5.7040910720825195,
				5.7040910720825195,
				-0.018657000735402107
			],
			"min":[
				-5.7040910720825195,
				-5.7040910720825195,
				-0.8934490084648132
			],
			"type":"VEC3"
		},
		{
			"bufferView":13,
			"componentType":5126,
			"count":121,
			"type":"VEC3"
		},
		{
			"bufferView":14,
			"componentType":5126,
			"count":121,
			"type":"VEC2"
		},
		{
			"bufferView":15,
			"componentType":5123,
			"count":600,
			"type":"SCALAR"
		}
	],
	"bufferViews":[
		{
			"buffer":0,
			"byteLength":1441956,
			"byteOffset":0,
			"target":34962
		},
		{
			"buffer":0,
			"byteLength":1441956,
			"byteOffset":1441956,
			"target":34962
		},
		{
			"buffer":0,
			"byteLength":961304,
			"byteOffset":2883912,
			"target":34962
		},
		{
			"buffer":0,
			"byteLength":1656072,
			"byteOffset":3845216,
			"target":34963
		},
		{
			"buffer":0,
			"byteLength":660,
			"byteOffset":5501288,
			"target":34962
		},
		{
			"buffer":0,
			"byteLength":660,
			"byteOffset":5501948,
			"target":34962
		},
		{
			"buffer":0,
			"byteLength":440,
			"byteOffset":5502608,
			"target":34962
		},
		{
			"buffer":0,
			"byteLength":480,
			"byteOffset":5503048,
			"target":34963
		},
		{
			"buffer":0,
			"byteLength":1044,
			"byteOffset":5503528,
			"target":34962
		},
		{
			"buffer":0,
			"byteLength":1044,
			"byteOffset":5504572,
			"target":34962
		},
		{
			"buffer":0,
			"byteLength":696,
			"byteOffset":5505616,
			"target":34962
		},
		{
			"buffer":0,
			"byteLength":672,
			"byteOffset":5506312,
			"target":34963
		},
		{
			"buffer":0,
			"byteLength":1452,
			"byteOffset":5506984,
			"target":34962
		},
		{
			"buffer":0,
			"byteLength":1452,
			"byteOffset":5508436,
			"target":34962
		},
		{
			"buffer":0,
			"byteLength":968,
			"byteOffset":5509888,
			"target":34962
		},
		{
			"buffer":0,
			"byteLength":1200,
			"byteOffset":5510856,
			"target":34963
		}
	],
	"samplers":[
		{
			"magFilter":9729,
			"minFilter":9987
		}
	],
	"buffers":[
		{
			"byteLength":5512056,
			"uri":"Dino_Death_Scene4.bin"
		}
	]
}
