{
	"asset":{
		"generator":"Khronos glTF Blender I/O v4.4.55",
		"version":"2.0"
	},
	"extensionsUsed":[
		"KHR_materials_specular"
	],
	"scene":0,
	"scenes":[
		{
			"name":"Scene",
			"nodes":[
				0,
				5
			]
		}
	],
	"nodes":[
		{
			"mesh":0,
			"name":"Table",
			"rotation":[
				0.7071068286895752,
				0,
				0,
				0.7071068286895752
			],
			"scale":[
				0.009999999776482582,
				0.009999999776482582,
				0.009999999776482582
			],
			"translation":[
				0,
				-0.1128549575805664,
				0
			]
		},
		{
			"mesh":1,
			"name":"_holes_laser_pointer",
			"rotation":[
				0,
				-0.7071067094802856,
				0,
				0.7071068286895752
			],
			"translation":[
				-24.748754501342773,
				134.05677795410156,
				-98.76903533935547
			]
		},
		{
			"mesh":2,
			"name":"Button_Cyrcle_1_Button1",
			"rotation":[
				0,
				-0.7071067094802856,
				0,
				0.7071068286895752
			],
			"translation":[
				-24.748754501342773,
				134.05677795410156,
				-98.76903533935547
			]
		},
		{
			"mesh":3,
			"name":"Button_Cyrcle_1_Button2",
			"rotation":[
				0,
				-0.7071067094802856,
				0,
				0.7071068286895752
			],
			"translation":[
				-24.74875831604004,
				134.0568084716797,
				-144.76902770996094
			]
		},
		{
			"mesh":4,
			"name":"Button_Cyrcle_1_Button3",
			"rotation":[
				-0.7071068286895752,
				0,
				-0.7071067094802856,
				8.007760499140204e-08
			],
			"scale":[
				-1,
				-1,
				-1
			],
			"translation":[
				-24.748750686645508,
				134.05679321289062,
				-52.76903533935547
			]
		},
		{
			"children":[
				1,
				2,
				3,
				4
			],
			"name":"_holeLaser_Pointer.002",
			"rotation":[
				0.7071068286895752,
				0,
				0,
				0.7071068286895752
			],
			"scale":[
				0.009999999776482582,
				0.009999999776482582,
				0.009999999776482582
			]
		}
	],
	"materials":[
		{
			"doubleSided":true,
			"extensions":{
				"KHR_materials_specular":{
					"specularColorFactor":[
						2.0,
						2.0,
						2.0
					]
				}
			},
			"name":"Material.002",
			"pbrMetallicRoughness":{
				"baseColorTexture":{
					"index":0
				},
				"metallicFactor":0,
				"metallicRoughnessTexture":{
					"index":1
				}
			}
		},
		{
			"doubleSided":true,
			"emissiveFactor":[
				1,
				1,
				1
			],
			"emissiveTexture":{
				"index":2
			},
			"extensions":{
				"KHR_materials_specular":{
					"specularColorFactor":[
						2.0,
						2.0,
						2.0
					]
				}
			},
			"name":"DefaultMaterial.004",
			"normalTexture":{
				"index":3
			},
			"pbrMetallicRoughness":{
				"baseColorTexture":{
					"index":4
				},
				"metallicFactor":0,
				"roughnessFactor":0.5
			}
		},
		{
			"doubleSided":true,
			"extensions":{
				"KHR_materials_specular":{
					"specularColorFactor":[
						2.0,
						2.0,
						2.0
					]
				}
			},
			"name":"standardSurface2.002",
			"pbrMetallicRoughness":{
				"baseColorTexture":{
					"index":5
				},
				"metallicFactor":0.050000011920928955,
				"roughnessFactor":0.22551369667053223
			}
		},
		{
			"doubleSided":true,
			"extensions":{
				"KHR_materials_specular":{
					"specularColorFactor":[
						2.0,
						2.0,
						2.0
					]
				}
			},
			"name":"Button_Cyrcle_1.003",
			"pbrMetallicRoughness":{
				"baseColorTexture":{
					"index":6
				},
				"metallicRoughnessTexture":{
					"index":7
				},
				"roughnessFactor":0
			}
		}
	],
	"meshes":[
		{
			"name":"Mesh.006",
			"primitives":[
				{
					"attributes":{
						"POSITION":0,
						"NORMAL":1,
						"TEXCOORD_0":2
					},
					"indices":3,
					"material":0
				}
			]
		},
		{
			"name":"Mesh.014",
			"primitives":[
				{
					"attributes":{
						"POSITION":4,
						"NORMAL":5,
						"TEXCOORD_0":6,
						"TEXCOORD_1":7
					},
					"indices":8,
					"material":1
				},
				{
					"attributes":{
						"POSITION":9,
						"NORMAL":10,
						"TEXCOORD_0":11,
						"TEXCOORD_1":12
					},
					"indices":13,
					"material":2
				},
				{
					"attributes":{
						"POSITION":14,
						"NORMAL":15,
						"TEXCOORD_0":16,
						"TEXCOORD_1":17
					},
					"indices":18,
					"material":3
				}
			]
		},
		{
			"name":"Mesh.011",
			"primitives":[
				{
					"attributes":{
						"POSITION":19,
						"NORMAL":20,
						"TEXCOORD_0":21
					},
					"indices":22,
					"material":3
				}
			]
		},
		{
			"name":"Mesh.012",
			"primitives":[
				{
					"attributes":{
						"POSITION":23,
						"NORMAL":24,
						"TEXCOORD_0":25
					},
					"indices":22,
					"material":3
				}
			]
		},
		{
			"name":"Mesh.013",
			"primitives":[
				{
					"attributes":{
						"POSITION":26,
						"NORMAL":27,
						"TEXCOORD_0":28
					},
					"indices":22,
					"material":3
				}
			]
		}
	],
	"textures":[
		{
			"sampler":0,
			"source":0
		},
		{
			"sampler":0,
			"source":1
		},
		{
			"sampler":0,
			"source":2
		},
		{
			"sampler":0,
			"source":3
		},
		{
			"sampler":0,
			"source":4
		},
		{
			"sampler":0,
			"source":5
		},
		{
			"sampler":0,
			"source":6
		},
		{
			"sampler":0,
			"source":7
		}
	],
	"images":[
		{
			"mimeType":"image/png",
			"name":"Albedo",
			"uri":"Albedo.png"
		},
		{
			"mimeType":"image/png",
			"name":"Rughness",
			"uri":"Rughness.png"
		},
		{
			"mimeType":"image/jpeg",
			"name":"Image_2",
			"uri":"Image_2.jpg"
		},
		{
			"mimeType":"image/png",
			"name":"Image_3",
			"uri":"Image_3.png"
		},
		{
			"mimeType":"image/jpeg",
			"name":"Image_0",
			"uri":"Image_0.jpg"
		},
		{
			"mimeType":"image/jpeg",
			"name":"Laser_Pointer_body",
			"uri":"Laser_Pointer_body.jpg"
		},
		{
			"mimeType":"image/png",
			"name":"Button_Cyrcle_1_Base_Red",
			"uri":"Button_Cyrcle_1_Base_Red.png"
		},
		{
			"mimeType":"image/png",
			"name":"Button_Cyrcle_1_Metallic",
			"uri":"Button_Cyrcle_1_Metallic.png"
		}
	],
	"accessors":[
		{
			"bufferView":0,
			"componentType":5126,
			"count":636,
			"max":[
				240.31822204589844,
				526.3824462890625,
				9.910561561584473
			],
			"min":[
				-240.31822204589844,
				-526.3824462890625,
				-9.910561561584473
			],
			"type":"VEC3"
		},
		{
			"bufferView":1,
			"componentType":5126,
			"count":636,
			"type":"VEC3"
		},
		{
			"bufferView":2,
			"componentType":5126,
			"count":636,
			"type":"VEC2"
		},
		{
			"bufferView":3,
			"componentType":5123,
			"count":2868,
			"type":"SCALAR"
		},
		{
			"bufferView":4,
			"componentType":5126,
			"count":4176,
			"max":[
				62.421661376953125,
				104.1407241821289,
				-3.905109405517578
			],
			"min":[
				-62.420963287353516,
				67.32804870605469,
				-37.19994354248047
			],
			"type":"VEC3"
		},
		{
			"bufferView":5,
			"componentType":5126,
			"count":4176,
			"type":"VEC3"
		},
		{
			"bufferView":6,
			"componentType":5126,
			"count":4176,
			"type":"VEC2"
		},
		{
			"bufferView":7,
			"componentType":5126,
			"count":4176,
			"type":"VEC2"
		},
		{
			"bufferView":8,
			"componentType":5123,
			"count":19818,
			"type":"SCALAR"
		},
		{
			"bufferView":9,
			"componentType":5126,
			"count":194,
			"max":[
				82.97108459472656,
				333.82977294921875,
				0.7726764678955078
			],
			"min":[
				-82.97108459472656,
				72.12870788574219,
				-46.87529754638672
			],
			"type":"VEC3"
		},
		{
			"bufferView":10,
			"componentType":5126,
			"count":194,
			"type":"VEC3"
		},
		{
			"bufferView":11,
			"componentType":5126,
			"count":194,
			"type":"VEC2"
		},
		{
			"bufferView":12,
			"componentType":5126,
			"count":194,
			"type":"VEC2"
		},
		{
			"bufferView":13,
			"componentType":5123,
			"count":756,
			"type":"SCALAR"
		},
		{
			"bufferView":14,
			"componentType":5126,
			"count":1020,
			"max":[
				60.47043991088867,
				133.7220916748047,
				-46.16586685180664
			],
			"min":[
				-60.47043991088867,
				104.78120422363281,
				-48.517337799072266
			],
			"type":"VEC3"
		},
		{
			"bufferView":15,
			"componentType":5126,
			"count":1020,
			"type":"VEC3"
		},
		{
			"bufferView":16,
			"componentType":5126,
			"count":1020,
			"type":"VEC2"
		},
		{
			"bufferView":17,
			"componentType":5126,
			"count":1020,
			"type":"VEC2"
		},
		{
			"bufferView":18,
			"componentType":5123,
			"count":5184,
			"type":"SCALAR"
		},
		{
			"bufferView":19,
			"componentType":5126,
			"count":133,
			"max":[
				10.852832794189453,
				130.1044921875,
				-46.16587829589844
			],
			"min":[
				-10.852832794189453,
				108.39881896972656,
				-53.40110397338867
			],
			"type":"VEC3"
		},
		{
			"bufferView":20,
			"componentType":5126,
			"count":133,
			"type":"VEC3"
		},
		{
			"bufferView":21,
			"componentType":5126,
			"count":133,
			"type":"VEC2"
		},
		{
			"bufferView":22,
			"componentType":5123,
			"count":480,
			"type":"SCALAR"
		},
		{
			"bufferView":23,
			"componentType":5126,
			"count":133,
			"max":[
				10.852832794189453,
				130.1044921875,
				-46.16587829589844
			],
			"min":[
				-10.852832794189453,
				108.39881896972656,
				-53.40110397338867
			],
			"type":"VEC3"
		},
		{
			"bufferView":24,
			"componentType":5126,
			"count":133,
			"type":"VEC3"
		},
		{
			"bufferView":25,
			"componentType":5126,
			"count":133,
			"type":"VEC2"
		},
		{
			"bufferView":26,
			"componentType":5126,
			"count":133,
			"max":[
				10.852832794189453,
				130.1044921875,
				-46.16587829589844
			],
			"min":[
				-10.852832794189453,
				108.39881896972656,
				-53.40110397338867
			],
			"type":"VEC3"
		},
		{
			"bufferView":27,
			"componentType":5126,
			"count":133,
			"type":"VEC3"
		},
		{
			"bufferView":28,
			"componentType":5126,
			"count":133,
			"type":"VEC2"
		}
	],
	"bufferViews":[
		{
			"buffer":0,
			"byteLength":7632,
			"byteOffset":0,
			"target":34962
		},
		{
			"buffer":0,
			"byteLength":7632,
			"byteOffset":7632,
			"target":34962
		},
		{
			"buffer":0,
			"byteLength":5088,
			"byteOffset":15264,
			"target":34962
		},
		{
			"buffer":0,
			"byteLength":5736,
			"byteOffset":20352,
			"target":34963
		},
		{
			"buffer":0,
			"byteLength":50112,
			"byteOffset":26088,
			"target":34962
		},
		{
			"buffer":0,
			"byteLength":50112,
			"byteOffset":76200,
			"target":34962
		},
		{
			"buffer":0,
			"byteLength":33408,
			"byteOffset":126312,
			"target":34962
		},
		{
			"buffer":0,
			"byteLength":33408,
			"byteOffset":159720,
			"target":34962
		},
		{
			"buffer":0,
			"byteLength":39636,
			"byteOffset":193128,
			"target":34963
		},
		{
			"buffer":0,
			"byteLength":2328,
			"byteOffset":232764,
			"target":34962
		},
		{
			"buffer":0,
			"byteLength":2328,
			"byteOffset":235092,
			"target":34962
		},
		{
			"buffer":0,
			"byteLength":1552,
			"byteOffset":237420,
			"target":34962
		},
		{
			"buffer":0,
			"byteLength":1552,
			"byteOffset":238972,
			"target":34962
		},
		{
			"buffer":0,
			"byteLength":1512,
			"byteOffset":240524,
			"target":34963
		},
		{
			"buffer":0,
			"byteLength":12240,
			"byteOffset":242036,
			"target":34962
		},
		{
			"buffer":0,
			"byteLength":12240,
			"byteOffset":254276,
			"target":34962
		},
		{
			"buffer":0,
			"byteLength":8160,
			"byteOffset":266516,
			"target":34962
		},
		{
			"buffer":0,
			"byteLength":8160,
			"byteOffset":274676,
			"target":34962
		},
		{
			"buffer":0,
			"byteLength":10368,
			"byteOffset":282836,
			"target":34963
		},
		{
			"buffer":0,
			"byteLength":1596,
			"byteOffset":293204,
			"target":34962
		},
		{
			"buffer":0,
			"byteLength":1596,
			"byteOffset":294800,
			"target":34962
		},
		{
			"buffer":0,
			"byteLength":1064,
			"byteOffset":296396,
			"target":34962
		},
		{
			"buffer":0,
			"byteLength":960,
			"byteOffset":297460,
			"target":34963
		},
		{
			"buffer":0,
			"byteLength":1596,
			"byteOffset":298420,
			"target":34962
		},
		{
			"buffer":0,
			"byteLength":1596,
			"byteOffset":300016,
			"target":34962
		},
		{
			"buffer":0,
			"byteLength":1064,
			"byteOffset":301612,
			"target":34962
		},
		{
			"buffer":0,
			"byteLength":1596,
			"byteOffset":302676,
			"target":34962
		},
		{
			"buffer":0,
			"byteLength":1596,
			"byteOffset":304272,
			"target":34962
		},
		{
			"buffer":0,
			"byteLength":1064,
			"byteOffset":305868,
			"target":34962
		}
	],
	"samplers":[
		{
			"magFilter":9729,
			"minFilter":9987
		}
	],
	"buffers":[
		{
			"byteLength":306932,
			"uri":"Light_Experiment.bin"
		}
	]
}
