{
	"asset":{
		"generator":"Khronos glTF Blender I/O v4.4.55",
		"version":"2.0"
	},
	"extensionsUsed":[
		"KHR_materials_specular"
	],
	"scene":0,
	"scenes":[
		{
			"name":"Scene",
			"nodes":[
				0,
				1
			]
		}
	],
	"nodes":[
		{
			"name":"Cube.001"
		},
		{
			"mesh":0,
			"name":"Cube.002_0",
			"rotation":[
				-0.70710688829422,
				0,
				0,
				0.7071066498756409
			],
			"translation":[
				0,
				0.8673410415649414,
				0
			]
		}
	],
	"materials":[
		{
			"doubleSided":true,
			"extensions":{
				"KHR_materials_specular":{
					"specularColorFactor":[
						2.0,
						2.0,
						2.0
					]
				}
			},
			"name":"Material.001",
			"normalTexture":{
				"index":0,
				"scale":0.30000001192092896
			},
			"pbrMetallicRoughness":{
				"baseColorTexture":{
					"index":1
				},
				"metallicFactor":0,
				"roughnessFactor":0.6000000238418579
			}
		}
	],
	"meshes":[
		{
			"name":"Mesh.007",
			"primitives":[
				{
					"attributes":{
						"POSITION":0,
						"NORMAL":1,
						"TEXCOORD_0":2,
						"TEXCOORD_1":3,
						"TEXCOORD_2":4
					},
					"indices":5,
					"material":0
				}
			]
		}
	],
	"textures":[
		{
			"sampler":0,
			"source":0
		},
		{
			"sampler":0,
			"source":1
		}
	],
	"images":[
		{
			"mimeType":"image/png",
			"name":"Material.004_normal",
			"uri":"Material_004_normal.png"
		},
		{
			"mimeType":"image/jpeg",
			"name":"Material.004_baseColor",
			"uri":"Material_004_baseColor.jpg"
		}
	],
	"accessors":[
		{
			"bufferView":0,
			"componentType":5126,
			"count":2416,
			"max":[
				0.2908799946308136,
				-0.13891999423503876,
				0.0195700004696846
			],
			"min":[
				0.045419998466968536,
				-0.23068000376224518,
				-0.04362000152468681
			],
			"type":"VEC3"
		},
		{
			"bufferView":1,
			"componentType":5126,
			"count":2416,
			"type":"VEC3"
		},
		{
			"bufferView":2,
			"componentType":5126,
			"count":2416,
			"type":"VEC2"
		},
		{
			"bufferView":3,
			"componentType":5126,
			"count":2416,
			"type":"VEC2"
		},
		{
			"bufferView":4,
			"componentType":5126,
			"count":2416,
			"type":"VEC2"
		},
		{
			"bufferView":5,
			"componentType":5123,
			"count":12432,
			"type":"SCALAR"
		}
	],
	"bufferViews":[
		{
			"buffer":0,
			"byteLength":28992,
			"byteOffset":0,
			"target":34962
		},
		{
			"buffer":0,
			"byteLength":28992,
			"byteOffset":28992,
			"target":34962
		},
		{
			"buffer":0,
			"byteLength":19328,
			"byteOffset":57984,
			"target":34962
		},
		{
			"buffer":0,
			"byteLength":19328,
			"byteOffset":77312,
			"target":34962
		},
		{
			"buffer":0,
			"byteLength":19328,
			"byteOffset":96640,
			"target":34962
		},
		{
			"buffer":0,
			"byteLength":24864,
			"byteOffset":115968,
			"target":34963
		}
	],
	"samplers":[
		{
			"magFilter":9729,
			"minFilter":9987
		}
	],
	"buffers":[
		{
			"byteLength":140832,
			"uri":"Hand.bin"
		}
	]
}
