{
	"asset":{
		"generator":"Khronos glTF Blender I/O v4.4.56",
		"version":"2.0"
	},
	"extensionsUsed":[
		"KHR_materials_specular"
	],
	"scene":0,
	"scenes":[
		{
			"name":"Scene",
			"nodes":[
				4
			]
		}
	],
	"nodes":[
		{
			"mesh":0,
			"name":"polySurface236",
			"scale":[
				1.185770034790039,
				1,
				1
			],
			"translation":[
				0.4590699374675751,
				0,
				1.0338172912597656
			]
		},
		{
			"mesh":1,
			"name":"polySurface237",
			"scale":[
				1.185770034790039,
				1,
				1
			],
			"translation":[
				-0.6463029384613037,
				0,
				1.0338172912597656
			]
		},
		{
			"mesh":2,
			"name":"polySurface238"
		},
		{
			"children":[
				0,
				1,
				2
			],
			"name":"polySurface235"
		},
		{
			"children":[
				3
			],
			"name":"Skeleton",
			"rotation":[
				0.7071068286895752,
				0,
				0,
				0.7071068286895752
			],
			"scale":[
				0.009999999776482582,
				0.009999999776482582,
				0.009999999776482582
			]
		}
	],
	"materials":[
		{
			"doubleSided":true,
			"extensions":{
				"KHR_materials_specular":{
					"specularTexture":{
						"index":0
					}
				}
			},
			"name":"blinn2.001",
			"normalTexture":{
				"index":1
			},
			"pbrMetallicRoughness":{
				"baseColorTexture":{
					"index":2
				},
				"metallicFactor":0.5,
				"roughnessFactor":0.7487671971321106
			}
		},
		{
			"doubleSided":true,
			"extensions":{
				"KHR_materials_specular":{
					"specularColorFactor":[
						2.0,
						2.0,
						2.0
					]
				}
			},
			"name":"lambert5.001",
			"pbrMetallicRoughness":{
				"roughnessFactor":0.5527864098548889
			}
		}
	],
	"meshes":[
		{
			"name":"Mesh.003",
			"primitives":[
				{
					"attributes":{
						"POSITION":0,
						"NORMAL":1,
						"TEXCOORD_0":2
					},
					"indices":3,
					"material":0
				}
			]
		},
		{
			"name":"Mesh.004",
			"primitives":[
				{
					"attributes":{
						"POSITION":4,
						"NORMAL":5,
						"TEXCOORD_0":6
					},
					"indices":7,
					"material":0
				}
			]
		},
		{
			"name":"Mesh.005",
			"primitives":[
				{
					"attributes":{
						"POSITION":8,
						"NORMAL":9,
						"TEXCOORD_0":10
					},
					"indices":11,
					"material":0
				},
				{
					"attributes":{
						"POSITION":12,
						"NORMAL":13,
						"TEXCOORD_0":14
					},
					"indices":15,
					"material":1
				}
			]
		}
	],
	"textures":[
		{
			"sampler":0,
			"source":0
		},
		{
			"sampler":0,
			"source":1
		},
		{
			"sampler":0,
			"source":2
		}
	],
	"images":[
		{
			"mimeType":"image/jpeg",
			"name":"Anatomy_Skeleton_Specular",
			"uri":"Anatomy_Skeleton_Specular.jpg"
		},
		{
			"mimeType":"image/jpeg",
			"name":"Anatomy_Skeleton_Normal",
			"uri":"Anatomy_Skeleton_Normal.jpg"
		},
		{
			"mimeType":"image/jpeg",
			"name":"Anatomy_Skeleton_AlbedoTransparency",
			"uri":"Anatomy_Skeleton_AlbedoTransparency.jpg"
		}
	],
	"accessors":[
		{
			"bufferView":0,
			"componentType":5126,
			"count":358,
			"max":[
				-0.008415457792580128,
				1.6530752182006836,
				-57.15412902832031
			],
			"min":[
				-4.933930397033691,
				-5.484470844268799,
				-62.217193603515625
			],
			"type":"VEC3"
		},
		{
			"bufferView":1,
			"componentType":5126,
			"count":358,
			"type":"VEC3"
		},
		{
			"bufferView":2,
			"componentType":5126,
			"count":358,
			"type":"VEC2"
		},
		{
			"bufferView":3,
			"componentType":5123,
			"count":1962,
			"type":"SCALAR"
		},
		{
			"bufferView":4,
			"componentType":5126,
			"count":357,
			"max":[
				6.0585126876831055,
				1.8370767831802368,
				-57.065189361572266
			],
			"min":[
				0.8995844721794128,
				-5.073916912078857,
				-62.18146514892578
			],
			"type":"VEC3"
		},
		{
			"bufferView":5,
			"componentType":5126,
			"count":357,
			"type":"VEC3"
		},
		{
			"bufferView":6,
			"componentType":5126,
			"count":357,
			"type":"VEC2"
		},
		{
			"bufferView":7,
			"componentType":5123,
			"count":1962,
			"type":"SCALAR"
		},
		{
			"bufferView":8,
			"componentType":5126,
			"count":45840,
			"max":[
				10.515725135803223,
				12.64278507232666,
				-1.1164193153381348
			],
			"min":[
				-11.170450210571289,
				-7.146777629852295,
				-75.6716079711914
			],
			"type":"VEC3"
		},
		{
			"bufferView":9,
			"componentType":5126,
			"count":45840,
			"type":"VEC3"
		},
		{
			"bufferView":10,
			"componentType":5126,
			"count":45840,
			"type":"VEC2"
		},
		{
			"bufferView":11,
			"componentType":5123,
			"count":242640,
			"type":"SCALAR"
		},
		{
			"bufferView":12,
			"componentType":5126,
			"count":141,
			"max":[
				-0.3470247983932495,
				-0.4975590109825134,
				-38.28593063354492
			],
			"min":[
				-10.069751739501953,
				-4.791733264923096,
				-68.00933074951172
			],
			"type":"VEC3"
		},
		{
			"bufferView":13,
			"componentType":5126,
			"count":141,
			"type":"VEC3"
		},
		{
			"bufferView":14,
			"componentType":5126,
			"count":141,
			"type":"VEC2"
		},
		{
			"bufferView":15,
			"componentType":5123,
			"count":438,
			"type":"SCALAR"
		}
	],
	"bufferViews":[
		{
			"buffer":0,
			"byteLength":4296,
			"byteOffset":0,
			"target":34962
		},
		{
			"buffer":0,
			"byteLength":4296,
			"byteOffset":4296,
			"target":34962
		},
		{
			"buffer":0,
			"byteLength":2864,
			"byteOffset":8592,
			"target":34962
		},
		{
			"buffer":0,
			"byteLength":3924,
			"byteOffset":11456,
			"target":34963
		},
		{
			"buffer":0,
			"byteLength":4284,
			"byteOffset":15380,
			"target":34962
		},
		{
			"buffer":0,
			"byteLength":4284,
			"byteOffset":19664,
			"target":34962
		},
		{
			"buffer":0,
			"byteLength":2856,
			"byteOffset":23948,
			"target":34962
		},
		{
			"buffer":0,
			"byteLength":3924,
			"byteOffset":26804,
			"target":34963
		},
		{
			"buffer":0,
			"byteLength":550080,
			"byteOffset":30728,
			"target":34962
		},
		{
			"buffer":0,
			"byteLength":550080,
			"byteOffset":580808,
			"target":34962
		},
		{
			"buffer":0,
			"byteLength":366720,
			"byteOffset":1130888,
			"target":34962
		},
		{
			"buffer":0,
			"byteLength":485280,
			"byteOffset":1497608,
			"target":34963
		},
		{
			"buffer":0,
			"byteLength":1692,
			"byteOffset":1982888,
			"target":34962
		},
		{
			"buffer":0,
			"byteLength":1692,
			"byteOffset":1984580,
			"target":34962
		},
		{
			"buffer":0,
			"byteLength":1128,
			"byteOffset":1986272,
			"target":34962
		},
		{
			"buffer":0,
			"byteLength":876,
			"byteOffset":1987400,
			"target":34963
		}
	],
	"samplers":[
		{
			"magFilter":9729,
			"minFilter":9987
		}
	],
	"buffers":[
		{
			"byteLength":1988276,
			"uri":"Skeleton_Standing.bin"
		}
	]
}
