{
    "asset" : {
        "generator" : "Khronos glTF Blender I/O v3.3.27",
        "version" : "2.0"
    },
    "extensionsUsed" : [
        "KHR_materials_specular"
    ],
    "scene" : 0,
    "scenes" : [
        {
            "name" : "Scene",
            "nodes" : [
                0
            ]
        }
    ],
    "nodes" : [
        {
            "mesh" : 0,
            "name" : "Strainer1",
            "rotation" : [
                0.70710688829422,
                0,
                0,
                0.7071066498756409
            ],
            "scale" : [
                0.04487993195652962,
                0.04487993195652962,
                0.04487993195652962
            ]
        }
    ],
    "materials" : [
        {
            "doubleSided" : true,
            "extensions" : {
                "KHR_materials_specular" : {
                    "specularColorFactor" : [
                        1.9999999999999998,
                        1.9999999999999998,
                        1.9999999999999998
                    ]
                }
            },
            "name" : "Stainless2.005",
            "pbrMetallicRoughness" : {
                "baseColorFactor" : [
                    0.800000011920929,
                    0.800000011920929,
                    0.800000011920929,
                    1
                ],
                "roughnessFactor" : 0.2069486379623413
            }
        }
    ],
    "meshes" : [
        {
            "name" : "Mesh.005",
            "primitives" : [
                {
                    "attributes" : {
                        "POSITION" : 0,
                        "NORMAL" : 1,
                        "TEXCOORD_0" : 2
                    },
                    "indices" : 3,
                    "material" : 0
                }
            ]
        }
    ],
    "accessors" : [
        {
            "bufferView" : 0,
            "componentType" : 5126,
            "count" : 13840,
            "max" : [
                14.018342018127441,
                13.949050903320312,
                11.085404396057129
            ],
            "min" : [
                -13.967093467712402,
                -14.036384582519531,
                -5.607527732849121
            ],
            "type" : "VEC3"
        },
        {
            "bufferView" : 1,
            "componentType" : 5126,
            "count" : 13840,
            "type" : "VEC3"
        },
        {
            "bufferView" : 2,
            "componentType" : 5126,
            "count" : 13840,
            "type" : "VEC2"
        },
        {
            "bufferView" : 3,
            "componentType" : 5123,
            "count" : 43101,
            "type" : "SCALAR"
        }
    ],
    "bufferViews" : [
        {
            "buffer" : 0,
            "byteLength" : 166080,
            "byteOffset" : 0,
            "target" : 34962
        },
        {
            "buffer" : 0,
            "byteLength" : 166080,
            "byteOffset" : 166080,
            "target" : 34962
        },
        {
            "buffer" : 0,
            "byteLength" : 110720,
            "byteOffset" : 332160,
            "target" : 34962
        },
        {
            "buffer" : 0,
            "byteLength" : 86202,
            "byteOffset" : 442880,
            "target" : 34963
        }
    ],
    "buffers" : [
        {
            "byteLength" : 529084,
            "uri" : "data:application/octet-stream;base64,"
        }
    ]
}
