{
	"asset":{
		"generator":"Khronos glTF Blender I/O v4.4.55",
		"version":"2.0"
	},
	"extensionsUsed":[
		"KHR_materials_specular"
	],
	"scene":0,
	"scenes":[
		{
			"name":"Scene",
			"nodes":[
				0,
				1,
				2
			]
		}
	],
	"nodes":[
		{
			"mesh":0,
			"name":"Strainer1",
			"rotation":[
				0.70710688829422,
				0,
				0,
				0.7071066498756409
			],
			"scale":[
				0.04487993195652962,
				0.044879935681819916,
				0.044879935681819916
			],
			"translation":[
				-0.4880649447441101,
				-0.0009090973762795329,
				1.8047038316726685
			]
		},
		{
			"mesh":1,
			"name":"Strainer3",
			"rotation":[
				0.70710688829422,
				0,
				0,
				0.7071066498756409
			],
			"scale":[
				0.04487993195652962,
				0.044879935681819916,
				0.044879935681819916
			],
			"translation":[
				-0.4880649447441101,
				-0.0009090973762795329,
				-0.8259134292602539
			]
		},
		{
			"mesh":2,
			"name":"Strainer4",
			"rotation":[
				0.7071068286895752,
				0,
				0,
				0.7071068286895752
			],
			"scale":[
				0.04487993195652962,
				0.04487993195652962,
				0.04487993195652962
			],
			"translation":[
				-0.4880649447441101,
				-0.0009090973762795329,
				0.4907585382461548
			]
		}
	],
	"materials":[
		{
			"doubleSided":true,
			"extensions":{
				"KHR_materials_specular":{
					"specularColorFactor":[
						2.0,
						2.0,
						2.0
					]
				}
			},
			"name":"Stainless2.005",
			"pbrMetallicRoughness":{
				"baseColorFactor":[
					0.800000011920929,
					0.800000011920929,
					0.800000011920929,
					1
				],
				"roughnessFactor":0.2069486379623413
			}
		},
		{
			"doubleSided":true,
			"extensions":{
				"KHR_materials_specular":{
					"specularColorFactor":[
						2.0,
						2.0,
						2.0
					]
				}
			},
			"name":"Stainless4",
			"pbrMetallicRoughness":{
				"baseColorFactor":[
					0.800000011920929,
					0.800000011920929,
					0.800000011920929,
					1
				],
				"roughnessFactor":0.13746222853660583
			}
		},
		{
			"alphaMode":"BLEND",
			"doubleSided":true,
			"extensions":{
				"KHR_materials_specular":{
					"specularColorFactor":[
						2.0,
						2.0,
						2.0
					]
				}
			},
			"name":"Filter",
			"pbrMetallicRoughness":{
				"baseColorTexture":{
					"index":0
				},
				"metallicFactor":0.9199395775794983,
				"roughnessFactor":0.5527864098548889
			}
		},
		{
			"doubleSided":true,
			"extensions":{
				"KHR_materials_specular":{
					"specularColorFactor":[
						2.0,
						2.0,
						2.0
					]
				}
			},
			"name":"Stainless3",
			"pbrMetallicRoughness":{
				"baseColorFactor":[
					0.800000011920929,
					0.800000011920929,
					0.800000011920929,
					1
				],
				"roughnessFactor":0.1586102843284607
			}
		}
	],
	"meshes":[
		{
			"name":"Mesh.005",
			"primitives":[
				{
					"attributes":{
						"POSITION":0,
						"NORMAL":1,
						"TEXCOORD_0":2
					},
					"indices":3,
					"material":0
				}
			]
		},
		{
			"name":"Mesh.006",
			"primitives":[
				{
					"attributes":{
						"POSITION":4,
						"NORMAL":5,
						"TEXCOORD_0":6,
						"TEXCOORD_1":7
					},
					"indices":8,
					"material":1
				},
				{
					"attributes":{
						"POSITION":9,
						"NORMAL":10,
						"TEXCOORD_0":11,
						"TEXCOORD_1":12
					},
					"indices":13,
					"material":2
				}
			]
		},
		{
			"name":"Mesh.007",
			"primitives":[
				{
					"attributes":{
						"POSITION":14,
						"NORMAL":15,
						"TEXCOORD_0":16
					},
					"indices":17,
					"material":3
				}
			]
		}
	],
	"textures":[
		{
			"sampler":0,
			"source":0
		}
	],
	"images":[
		{
			"mimeType":"image/png",
			"name":"Stainless2_Opacity",
			"uri":"Stainless2_Opacity.png"
		}
	],
	"accessors":[
		{
			"bufferView":0,
			"componentType":5126,
			"count":10153,
			"max":[
				13.992715835571289,
				-8.288951873779297,
				-0.8386668562889099
			],
			"min":[
				-13.992719650268555,
				-36.27438735961914,
				-17.531599044799805
			],
			"type":"VEC3"
		},
		{
			"bufferView":1,
			"componentType":5126,
			"count":10153,
			"type":"VEC3"
		},
		{
			"bufferView":2,
			"componentType":5126,
			"count":10153,
			"type":"VEC2"
		},
		{
			"bufferView":3,
			"componentType":5123,
			"count":43101,
			"type":"SCALAR"
		},
		{
			"bufferView":4,
			"componentType":5126,
			"count":6997,
			"max":[
				13.992715835571289,
				-8.288951873779297,
				-1.4709583520889282
			],
			"min":[
				-13.992719650268555,
				-36.27438735961914,
				-17.531599044799805
			],
			"type":"VEC3"
		},
		{
			"bufferView":5,
			"componentType":5126,
			"count":6997,
			"type":"VEC3"
		},
		{
			"bufferView":6,
			"componentType":5126,
			"count":6997,
			"type":"VEC2"
		},
		{
			"bufferView":7,
			"componentType":5126,
			"count":6997,
			"type":"VEC2"
		},
		{
			"bufferView":8,
			"componentType":5123,
			"count":36177,
			"type":"SCALAR"
		},
		{
			"bufferView":9,
			"componentType":5126,
			"count":136,
			"max":[
				13.795639991760254,
				-8.486029624938965,
				-1.4709583520889282
			],
			"min":[
				-13.795639991760254,
				-36.077308654785156,
				-1.4709742069244385
			],
			"type":"VEC3"
		},
		{
			"bufferView":10,
			"componentType":5126,
			"count":136,
			"type":"VEC3"
		},
		{
			"bufferView":11,
			"componentType":5126,
			"count":136,
			"type":"VEC2"
		},
		{
			"bufferView":12,
			"componentType":5126,
			"count":136,
			"type":"VEC2"
		},
		{
			"bufferView":13,
			"componentType":5123,
			"count":159,
			"type":"SCALAR"
		},
		{
			"bufferView":14,
			"componentType":5126,
			"count":15830,
			"max":[
				13.992715835571289,
				-8.288955688476562,
				-0.026065899059176445
			],
			"min":[
				-13.992719650268555,
				-36.274391174316406,
				-17.531606674194336
			],
			"type":"VEC3"
		},
		{
			"bufferView":15,
			"componentType":5126,
			"count":15830,
			"type":"VEC3"
		},
		{
			"bufferView":16,
			"componentType":5126,
			"count":15830,
			"type":"VEC2"
		},
		{
			"bufferView":17,
			"componentType":5123,
			"count":64845,
			"type":"SCALAR"
		}
	],
	"bufferViews":[
		{
			"buffer":0,
			"byteLength":121836,
			"byteOffset":0,
			"target":34962
		},
		{
			"buffer":0,
			"byteLength":121836,
			"byteOffset":121836,
			"target":34962
		},
		{
			"buffer":0,
			"byteLength":81224,
			"byteOffset":243672,
			"target":34962
		},
		{
			"buffer":0,
			"byteLength":86202,
			"byteOffset":324896,
			"target":34963
		},
		{
			"buffer":0,
			"byteLength":83964,
			"byteOffset":411100,
			"target":34962
		},
		{
			"buffer":0,
			"byteLength":83964,
			"byteOffset":495064,
			"target":34962
		},
		{
			"buffer":0,
			"byteLength":55976,
			"byteOffset":579028,
			"target":34962
		},
		{
			"buffer":0,
			"byteLength":55976,
			"byteOffset":635004,
			"target":34962
		},
		{
			"buffer":0,
			"byteLength":72354,
			"byteOffset":690980,
			"target":34963
		},
		{
			"buffer":0,
			"byteLength":1632,
			"byteOffset":763336,
			"target":34962
		},
		{
			"buffer":0,
			"byteLength":1632,
			"byteOffset":764968,
			"target":34962
		},
		{
			"buffer":0,
			"byteLength":1088,
			"byteOffset":766600,
			"target":34962
		},
		{
			"buffer":0,
			"byteLength":1088,
			"byteOffset":767688,
			"target":34962
		},
		{
			"buffer":0,
			"byteLength":318,
			"byteOffset":768776,
			"target":34963
		},
		{
			"buffer":0,
			"byteLength":189960,
			"byteOffset":769096,
			"target":34962
		},
		{
			"buffer":0,
			"byteLength":189960,
			"byteOffset":959056,
			"target":34962
		},
		{
			"buffer":0,
			"byteLength":126640,
			"byteOffset":1149016,
			"target":34962
		},
		{
			"buffer":0,
			"byteLength":129690,
			"byteOffset":1275656,
			"target":34963
		}
	],
	"samplers":[
		{
			"magFilter":9729,
			"minFilter":9987
		}
	],
	"buffers":[
		{
			"byteLength":1405348,
			"uri":"Streinergltf.bin"
		}
	]
}
